<svg width="166" height="46" viewBox="0 0 166 46" fill="none" xmlns="http://www.w3.org/2000/svg">
<path d="M62.9986 31V15.7273H65.8523V18.2131H66.0412C66.3594 17.3712 66.8797 16.715 67.6023 16.2443C68.3248 15.767 69.1899 15.5284 70.1974 15.5284C71.2183 15.5284 72.0734 15.767 72.7628 16.2443C73.4588 16.7216 73.9725 17.3778 74.304 18.2131H74.4631C74.8277 17.3977 75.4077 16.7481 76.2031 16.2642C76.9986 15.7737 77.9465 15.5284 79.0469 15.5284C80.4323 15.5284 81.5625 15.9626 82.4375 16.831C83.3191 17.6993 83.7599 19.0085 83.7599 20.7585V31H80.7869V21.0369C80.7869 20.0028 80.5052 19.2538 79.9418 18.7898C79.3783 18.3258 78.7055 18.0938 77.9233 18.0938C76.9555 18.0938 76.2031 18.392 75.6662 18.9886C75.1293 19.5786 74.8608 20.3376 74.8608 21.2656V31H71.8977V20.848C71.8977 20.0194 71.6392 19.3532 71.1222 18.8494C70.6051 18.3456 69.9323 18.0938 69.1037 18.0938C68.5402 18.0938 68.0199 18.2429 67.5426 18.5412C67.072 18.8329 66.6908 19.2405 66.3991 19.7642C66.1141 20.2879 65.9716 20.8944 65.9716 21.5838V31H62.9986ZM89.0771 36.7273C88.6329 36.7273 88.2286 36.6908 87.864 36.6179C87.4994 36.5516 87.2276 36.4787 87.0487 36.3991L87.7646 33.9631C88.3081 34.1089 88.792 34.1719 89.2163 34.152C89.6405 34.1321 90.015 33.973 90.3398 33.6747C90.6713 33.3764 90.9629 32.8892 91.2148 32.2131L91.5827 31.1989L85.9947 15.7273H89.1765L93.0444 27.5795H93.2035L97.0714 15.7273H100.263L93.9691 33.0384C93.6774 33.8338 93.3062 34.5066 92.8555 35.0568C92.4047 35.6136 91.8678 36.0313 91.2447 36.3097C90.6216 36.5881 89.899 36.7273 89.0771 36.7273ZM117.736 15.7273V18.1136H109.105V15.7273H117.736ZM111.472 31V13.9574C111.472 13.0028 111.68 12.2107 112.098 11.581C112.516 10.9446 113.069 10.4706 113.759 10.1591C114.448 9.84091 115.197 9.68182 116.006 9.68182C116.602 9.68182 117.113 9.73153 117.537 9.83097C117.961 9.92377 118.276 10.0099 118.482 10.0895L117.786 12.4957C117.646 12.456 117.467 12.4096 117.249 12.3565C117.03 12.2969 116.765 12.267 116.453 12.267C115.731 12.267 115.214 12.446 114.902 12.804C114.597 13.1619 114.445 13.679 114.445 14.3551V31H111.472ZM120.803 31V15.7273H123.776V31H120.803ZM122.305 13.3707C121.788 13.3707 121.344 13.1984 120.972 12.8537C120.608 12.5024 120.425 12.0848 120.425 11.6009C120.425 11.1103 120.608 10.6927 120.972 10.348C121.344 9.99668 121.788 9.82102 122.305 9.82102C122.822 9.82102 123.263 9.99668 123.627 10.348C123.998 10.6927 124.184 11.1103 124.184 11.6009C124.184 12.0848 123.998 12.5024 123.627 12.8537C123.263 13.1984 122.822 13.3707 122.305 13.3707ZM130.749 21.9318V31H127.776V15.7273H130.63V18.2131H130.819C131.17 17.4044 131.72 16.7547 132.469 16.2642C133.225 15.7737 134.176 15.5284 135.323 15.5284C136.364 15.5284 137.275 15.7472 138.057 16.1847C138.839 16.6155 139.446 17.2585 139.877 18.1136C140.308 18.9687 140.523 20.026 140.523 21.2855V31H137.55V21.6435C137.55 20.5365 137.262 19.6714 136.685 19.0483C136.108 18.4186 135.316 18.1037 134.309 18.1037C133.619 18.1037 133.006 18.2528 132.469 18.5511C131.939 18.8494 131.518 19.2869 131.206 19.8636C130.901 20.4337 130.749 21.1231 130.749 21.9318ZM155.955 19.456L153.26 19.9332C153.148 19.5885 152.969 19.2604 152.723 18.9489C152.485 18.6373 152.16 18.3821 151.749 18.1832C151.338 17.9844 150.824 17.8849 150.208 17.8849C149.366 17.8849 148.663 18.0739 148.1 18.4517C147.536 18.8229 147.255 19.3035 147.255 19.8935C147.255 20.4039 147.444 20.8149 147.821 21.1264C148.199 21.438 148.809 21.6932 149.651 21.892L152.077 22.4489C153.482 22.7737 154.53 23.2741 155.219 23.9503C155.908 24.6264 156.253 25.5047 156.253 26.5852C156.253 27.5 155.988 28.3153 155.458 29.0312C154.934 29.7405 154.202 30.2973 153.26 30.7017C152.326 31.1061 151.242 31.3082 150.009 31.3082C148.299 31.3082 146.903 30.9437 145.823 30.2145C144.742 29.4787 144.079 28.4347 143.834 27.0824L146.708 26.6449C146.887 27.3939 147.255 27.9607 147.811 28.3452C148.368 28.723 149.094 28.9119 149.989 28.9119C150.963 28.9119 151.742 28.7098 152.326 28.3054C152.909 27.8944 153.201 27.3939 153.201 26.804C153.201 26.3267 153.022 25.9257 152.664 25.6009C152.312 25.276 151.772 25.0308 151.043 24.8651L148.458 24.2983C147.033 23.9735 145.979 23.4564 145.296 22.7472C144.62 22.0379 144.282 21.1397 144.282 20.0526C144.282 19.151 144.533 18.3622 145.037 17.6861C145.541 17.0099 146.237 16.483 147.125 16.1051C148.014 15.7206 149.031 15.5284 150.178 15.5284C151.828 15.5284 153.128 15.8864 154.076 16.6023C155.024 17.3116 155.65 18.2628 155.955 19.456Z" fill="#313045"/>
<path d="M161.481 31.1889C160.937 31.1889 160.47 30.9967 160.079 30.6122C159.688 30.2211 159.492 29.7505 159.492 29.2003C159.492 28.6567 159.688 28.1927 160.079 27.8082C160.47 27.4171 160.937 27.2216 161.481 27.2216C162.024 27.2216 162.492 27.4171 162.883 27.8082C163.274 28.1927 163.469 28.6567 163.469 29.2003C163.469 29.5649 163.377 29.8996 163.191 30.2045C163.012 30.5028 162.773 30.7415 162.475 30.9205C162.177 31.0994 161.845 31.1889 161.481 31.1889Z" fill="#42A867"/>
<path d="M24 0C17.7631 0.00231137 11.7718 2.33029 7.2943 6.4912C2.81681 10.6521 0.204475 16.3194 0.0102121 22.2936C0.00335491 22.5269 0 22.7634 0 23C0 27.549 1.40756 31.9958 4.04472 35.7781C6.68187 39.5604 10.4302 42.5084 14.8156 44.2492C19.201 45.99 24.0266 46.4455 28.6822 45.5581C33.3377 44.6706 37.6141 42.4801 40.9706 39.2635C44.327 36.0468 46.6128 31.9486 47.5388 27.4871C48.4649 23.0255 47.9896 18.401 46.1731 14.1983C44.3566 9.99558 41.2805 6.40347 37.3337 3.8762C33.3869 1.34893 28.7467 0 24 0ZM24 45C17.8186 44.9938 12.3709 42.6888 8 38.5C3.62912 34.3112 1.00644 28.9238 1 23C1 22.6944 0.986272 22.299 1 22C1.18566 17.6234 2.82717 13.5532 5.5 10C8.17283 6.44676 11.7259 4.05214 16 2.5C20.2741 0.947857 24.5412 0.536604 29 1.5C33.4588 2.4634 37.3344 4.84038 40.5 8C43.6656 11.1596 45.6768 14.6914 46.5 19C47.3232 23.3086 46.792 27.4705 45 31.5C43.208 35.5296 40.3133 39.0851 36.5 41.5C32.6867 43.9149 28.5707 45.0001 24 45Z" fill="#42A867"/>
<path d="M44.2286 23C44.2286 28.1414 42.0974 33.0722 38.3038 36.7077C34.5102 40.3433 29.365 42.3857 24 42.3857C18.6351 42.3857 13.4899 40.3433 9.69627 36.7077C5.90267 33.0722 3.77145 28.1414 3.77145 23C3.77145 22.3856 3.80226 21.781 3.86052 21.183C4.34799 16.221 6.81092 11.6295 10.7379 8.36201C14.6649 5.09447 19.7542 3.40189 24.9491 3.63571C30.144 3.86954 35.0453 6.01181 38.6354 9.6177C42.2256 13.2236 44.2286 18.016 44.2286 23Z" fill="white"/>
<path d="M30.024 24.288C29.5337 23.6702 28.8887 23.1809 28.1487 22.8653C27.2359 22.4967 26.2934 22.2 25.3303 21.9782V16.7013C26.8106 16.9152 28.199 17.5218 29.3383 18.4526L30.4561 16.169C29.8132 15.6202 29.0752 15.1832 28.2754 14.8777C27.3889 14.5337 26.4584 14.305 25.5086 14.1976V11.523H22.9201V14.2239C21.9205 14.3315 20.9563 14.6417 20.0915 15.134C19.3103 15.5771 18.6527 16.1949 18.1748 16.9346C17.7188 17.6564 17.4825 18.4861 17.4926 19.3299C17.4481 20.2442 17.7245 21.1465 18.2778 21.8927C18.787 22.5388 19.4595 23.0499 20.232 23.3779C21.1592 23.7574 22.1181 24.0618 23.0984 24.288V29.3447C21.3515 29.2184 19.687 28.582 18.3292 27.5211L17.2115 29.808C17.9707 30.4095 18.8341 30.8788 19.7624 31.1946C20.7796 31.5434 21.8422 31.7557 22.9201 31.8254V34.477H25.5086V31.7762C26.9464 31.6256 28.2947 31.0331 29.352 30.0873C29.8176 29.6594 30.1855 29.1434 30.4322 28.5722C30.6789 28.0009 30.7991 27.3868 30.7852 26.7687C30.8282 25.8835 30.5602 25.01 30.024 24.288ZM23.0984 21.4196C22.4678 21.2363 21.8816 20.9348 21.3737 20.5324C21.1725 20.3609 21.0135 20.1487 20.908 19.9113C20.8025 19.6738 20.7531 19.4169 20.7635 19.159C20.7448 18.5738 20.9692 18.0054 21.3874 17.5786C21.8511 17.1308 22.4494 16.8332 23.0984 16.7276V21.4196ZM26.9555 28.4116C26.5181 28.8415 25.9486 29.1259 25.3303 29.2231V24.8729C25.9213 25.0248 26.4741 25.2897 26.9555 25.6516C27.138 25.801 27.283 25.9878 27.3798 26.1983C27.4765 26.4088 27.5225 26.6374 27.5143 26.8673C27.5381 27.4312 27.3385 27.9829 26.9555 28.4116Z" fill="#42A867"/>
</svg>
