<svg width="106" height="269" viewBox="0 0 106 269" fill="none" xmlns="http://www.w3.org/2000/svg">
<path d="M97.1037 151.113C80.7817 159.444 65.4931 170.6 51.1724 184.36V205.399C58.1606 203.516 84.8335 195.711 95.3648 183.367C107.537 169.1 109.702 147.444 99.5643 142.022C96.9233 140.613 93.7162 140.438 90.1976 141.21C79.1003 147.529 68.4869 155.191 58.3492 164.12C54.7567 168.49 52.5339 174.055 51.1724 179.678V179.944C64.2874 165.49 79.7073 156.113 97.1037 151.113Z" fill="#42A867"/>
<path d="M97.4384 22.0745C80.8285 30.4815 65.2703 41.7389 50.6971 55.6239V60.4729C52.0909 60.0994 54.2444 59.5031 56.8986 58.684C68.8177 47.5904 82.406 40.1204 97.4384 35.835C86.9216 41.1557 76.8222 47.6232 67.1316 55.1783C77.3813 51.3057 89.3672 45.5656 95.6689 38.2398C96.3366 37.4666 96.9709 36.6868 97.5719 35.9005C108.172 22.0876 108.873 6.93789 99.1077 1.76133C88.7912 -3.71014 70.704 4.04161 58.3176 18.4312C51.1562 26.7596 49.1446 39.6814 48.7357 49.0844C49.395 49.7659 50.046 50.4605 50.6971 51.1681C64.0434 36.582 79.7352 27.12 97.4384 22.0745Z" fill="#42A867"/>
<path d="M3.66925 98.2663V98.2728C4.86784 100.815 6.37017 103.384 8.15965 105.914C10.8183 109.679 14.9036 113.173 19.529 116.298C24.4835 119.649 30.0711 122.573 35.2115 124.948C42.3859 128.267 48.6909 130.518 51.1724 131.372V129.334C36.9164 116.33 21.7573 105.732 5.59371 97.7488C22.7617 102.523 38.0474 111.322 51.1724 124.734V115.748C36.9164 102.743 21.7573 92.1459 5.59371 84.1622C22.7617 88.9369 38.0474 97.7358 51.1724 111.148V102.161C37.1021 89.3316 22.1624 78.8441 6.2352 70.8992C-1.22628 75.4992 -1.87611 86.5949 3.66925 98.2663Z" fill="#42A867"/>
<path d="M48.7356 41.7054H51.1724V269H48.7356V41.7054Z" fill="#3F3D56"/>
</svg>
