<svg width="818" height="798" viewBox="0 0 818 798" fill="none" xmlns="http://www.w3.org/2000/svg">
<path d="M468.313 799C597.183 799 701.652 795.103 701.652 790.296C701.652 785.488 597.183 781.591 468.313 781.591C339.444 781.591 234.975 785.488 234.975 790.296C234.975 795.103 339.444 799 468.313 799Z" fill="#3F3D56" fill-opacity="0.03"/>
<path d="M389.367 790.891C389.367 790.891 447.772 628.21 415.574 528.099C383.377 427.987 357.918 431.898 357.918 431.898C357.918 431.898 314.489 420.166 260.576 454.579C206.664 488.992 192.437 499.16 161.737 485.082C131.037 471.004 125.047 449.104 50.1684 451.451C50.1684 451.451 89.8539 428.769 128.791 449.104C167.727 469.44 193.935 480.389 233.62 449.104C273.306 417.82 327.967 377.149 381.13 401.395C381.13 401.395 342.194 361.507 329.464 361.507C316.735 361.507 256.832 355.25 237.364 334.133C237.364 334.133 209.659 313.798 160.239 363.853C110.82 413.909 122.8 413.909 78.6222 409.998C34.444 406.088 0 383.406 0 383.406C0 383.406 51.666 405.306 83.1148 394.356C114.564 383.406 141.52 341.954 169.225 327.876C196.93 313.798 213.403 295.027 250.842 315.362C250.842 315.362 235.118 248.1 205.166 253.574C175.215 259.049 219.393 237.932 219.393 237.932C219.393 237.932 211.157 123.743 195.432 115.921C179.708 108.1 189.442 87.7651 160.239 83.8545C160.239 83.8545 196.181 79.1617 202.92 104.972C209.659 130.782 256.084 269.999 256.084 269.999C256.084 269.999 284.537 329.44 315.986 315.362C347.435 301.284 304.006 222.29 304.006 222.29L250.093 196.48C250.093 196.48 290.528 194.915 315.237 219.161C339.947 243.407 341.445 321.619 341.445 321.619C341.445 321.619 403.594 331.004 418.569 366.2C418.569 366.2 428.304 334.915 409.584 316.144C404.904 311.451 399.99 303.288 395.252 293.683C377.131 256.949 370.984 215.077 376.684 174.186C379.474 154.175 381.191 134.61 378.135 130C371.396 119.832 342.942 57.2624 340.696 40.8378C338.45 24.4133 342.942 -9.99994 342.942 -9.99994C342.942 -9.99994 343.691 32.2345 352.676 45.5306C361.662 58.8266 387.12 124.525 387.12 124.525C387.12 124.525 387.12 207.429 408.086 248.1C429.052 288.77 469.487 334.133 467.24 363.853V381.06C467.24 381.06 512.167 336.479 509.172 321.619C506.177 306.759 502.433 271.563 473.979 250.446C445.525 229.329 426.806 195.698 447.023 147.206C467.24 98.7147 467.24 90.1114 467.24 90.1114L453.762 150.335C453.762 150.335 446.274 204.301 467.24 223.072C488.206 241.843 515.911 276.256 515.911 276.256L509.921 163.631L529.389 208.211C529.389 208.211 571.321 151.899 620.741 133.128C670.16 114.357 700.86 48.659 700.86 48.659L742.792 14.2457L708.348 57.2624C708.348 57.2624 697.865 108.1 638.711 144.078C579.558 180.055 541.37 233.239 539.123 266.088C536.877 298.937 534.631 327.876 534.631 327.876C534.631 327.876 645.45 323.965 670.16 273.127C694.87 222.29 697.116 121.396 721.078 104.972C745.039 88.5471 789.965 68.212 789.965 68.212L739.797 111.229C739.797 111.229 729.314 146.424 731.56 171.452C733.807 196.48 715.087 219.943 715.087 219.943L700.86 263.742L685.136 301.284C685.136 301.284 749.531 302.848 783.227 342.736C816.922 382.624 900.785 394.356 900.785 394.356L853.612 407.652C853.612 407.652 808.685 392.01 766.004 363.071C723.324 334.133 727.817 308.323 674.653 337.261C621.489 366.2 548.858 390.445 548.858 390.445C548.858 390.445 590.789 370.11 666.416 419.384C742.043 468.657 628.977 410.781 595.282 429.551C561.587 448.322 545.862 424.859 532.384 471.786C518.906 518.713 494.196 646.981 522.65 718.936L551.104 790.891H389.367Z" fill="#3F3D56" fill-opacity="0.03"/>
<path opacity="0.1" d="M671.296 273.127C651.221 314.43 574.31 324.758 546.164 327.179C545.374 337.782 544.854 344.487 544.854 344.487C544.854 344.487 655.674 340.576 680.384 289.738C705.093 238.901 707.34 138.007 731.301 121.583C733.842 119.841 736.621 118.055 739.555 116.254C740.378 113.097 740.933 111.229 740.933 111.229L791.102 68.212C791.102 68.212 746.175 88.5471 722.214 104.972C698.253 121.396 696.006 222.29 671.296 273.127Z" fill="black" fill-opacity="0.14"/>
<path opacity="0.1" d="M542.169 194.113C542.005 213.369 539.612 224.822 539.612 224.822C539.612 224.822 581.527 168.534 630.933 149.751C633.853 147.821 636.815 145.922 639.847 144.078C699.001 108.1 709.484 57.2623 709.484 57.2623L743.928 14.2457L701.996 48.659C701.996 48.659 671.296 114.357 621.877 133.128C588.19 145.923 557.988 176.157 542.169 194.113Z" fill="black" fill-opacity="0.14"/>
<path opacity="0.1" d="M477.464 380.464V397.671C477.464 397.671 522.391 353.09 519.395 338.23C517.105 326.865 514.362 303.612 500.478 283.853C506.737 298.785 508.641 313.35 510.308 321.619C512.456 332.275 489.962 358.213 477.062 372.037C477.515 374.819 477.649 377.648 477.464 380.464Z" fill="black" fill-opacity="0.14"/>
<path opacity="0.1" d="M417.198 262.383C417.554 263.176 417.921 263.956 418.31 264.711C429.792 286.984 447.103 310.661 460.055 332.409C449.587 310.872 431.37 286.243 417.198 262.383Z" fill="black" fill-opacity="0.14"/>
<path opacity="0.1" d="M453.703 229.086C447.665 213.632 446.67 195.244 453.607 173.696C453.52 165.887 453.952 158.081 454.898 150.335L466.688 97.6528C464.515 105.25 459.541 119.906 448.159 147.206C433.75 181.767 439.128 208.773 453.703 229.086Z" fill="black" fill-opacity="0.14"/>
<path opacity="0.1" d="M784.363 342.736C760.995 315.074 722.868 305.845 701.688 302.785L695.359 317.895C695.359 317.895 759.755 319.459 793.45 359.347C812.135 381.467 846.244 394.924 872.928 402.528L901.921 394.356C901.921 394.356 818.058 382.624 784.363 342.736Z" fill="black" fill-opacity="0.14"/>
<path opacity="0.1" d="M326.209 331.973C357.658 317.895 314.229 238.901 314.229 238.901L313.041 238.332C323.868 262.193 339.571 305.313 317.122 315.362C296.116 324.765 276.449 301.371 265.702 284.795C266.093 285.968 266.307 286.61 266.307 286.61C266.307 286.61 294.761 346.051 326.209 331.973Z" fill="black" fill-opacity="0.14"/>
<path opacity="0.1" d="M428.793 382.811C428.793 382.811 438.269 352.3 420.467 333.463C424.832 349.691 419.705 366.2 419.705 366.2C408.12 338.974 368.313 327.195 350.877 323.256C351.554 332.32 351.668 338.23 351.668 338.23C351.668 338.23 413.817 347.615 428.793 382.811Z" fill="black" fill-opacity="0.14"/>
<path opacity="0.1" d="M466.688 97.6528C468.376 91.7554 468.376 90.1113 468.376 90.1113L466.688 97.6528Z" fill="black" fill-opacity="0.14"/>
<path opacity="0.1" d="M92.8837 411.116C93.0348 411.066 93.1881 411.019 93.3381 410.967C124.787 400.017 151.743 358.565 179.448 344.487C207.153 330.409 223.626 311.638 261.065 331.973C261.065 331.973 254.516 303.969 241.823 285.57C246.027 295.175 249.425 305.143 251.978 315.362C214.539 295.027 198.066 313.798 170.361 327.876C142.656 341.954 115.7 383.406 84.2508 394.356C52.8019 405.306 1.13591 383.406 1.13591 383.406C1.13591 383.406 35.5799 406.088 79.7581 409.998C84.8118 410.446 89.1239 410.84 92.8837 411.116Z" fill="black" fill-opacity="0.14"/>
<path opacity="0.1" d="M405.06 790.891C418.78 746.96 451.775 625.48 425.798 544.709C414.579 509.828 404.181 487.585 395.39 473.395C401.964 486.828 409.151 504.596 416.71 528.098C448.908 628.21 390.503 790.891 390.503 790.891H405.06Z" fill="black" fill-opacity="0.14"/>
<path opacity="0.1" d="M112.64 457.742C121.82 458.715 130.755 461.416 139.014 465.715C169.765 481.775 192.581 491.961 220.362 480.131C226.691 476.639 233.77 472.318 241.933 467.173C242.57 466.688 243.2 466.223 243.844 465.715C283.529 434.43 338.19 393.76 391.354 418.006C391.354 418.006 380.609 407.002 368.565 396.553C319.837 384.067 271.038 420.503 234.756 449.104C195.071 480.389 168.863 469.439 129.927 449.104C90.9897 428.769 51.3043 451.451 51.3043 451.451C80.2354 450.544 98.8777 453.259 112.64 457.742Z" fill="black" fill-opacity="0.14"/>
<path opacity="0.1" d="M188.644 108.329C189.498 109.831 190.533 111.213 191.723 112.441C190.849 110.953 189.816 109.573 188.644 108.329Z" fill="black" fill-opacity="0.14"/>
<path opacity="0.1" d="M325.461 235.772C326.618 236.915 327.702 238.137 328.707 239.428C325.427 231.192 321.376 224.07 316.373 219.161C291.664 194.915 251.229 196.48 251.229 196.48L301.938 220.756C310.627 224.142 318.613 229.24 325.461 235.772Z" fill="black" fill-opacity="0.14"/>
<path opacity="0.1" d="M379.271 129.999C382.327 134.61 380.61 154.175 377.82 174.186C372.12 215.077 378.267 256.949 396.388 293.682C398.773 298.612 401.437 303.389 404.366 307.988C387.112 271.813 381.326 230.836 386.908 190.797C389.697 170.786 391.414 151.221 388.358 146.61C381.619 136.443 353.166 73.8732 350.919 57.4487C350.246 51.0768 350.089 44.6568 350.45 38.2572C344.634 21.0193 344.078 -10 344.078 -10C344.078 -10 339.586 24.4133 341.832 40.8378C344.078 57.2622 372.532 119.832 379.271 129.999Z" fill="black" fill-opacity="0.14"/>
<path opacity="0.1" d="M449.518 21.8743C449.218 20.3285 448.763 18.8201 448.159 17.3743C448.159 17.3743 448.734 19.0623 449.518 21.8743Z" fill="black" fill-opacity="0.14"/>
<path opacity="0.1" d="M185.045 100.644C191.644 101.488 199.235 103.603 205.026 108.507C204.648 107.173 204.318 105.977 204.056 104.972C197.317 79.1617 161.375 83.8545 161.375 83.8545C177.618 86.0295 181.813 93.286 185.045 100.644Z" fill="black" fill-opacity="0.14"/>
<path d="M371.152 757.473C376.491 778.087 394.778 790.854 394.778 790.854C394.778 790.854 404.408 770.199 399.069 749.585C393.731 728.971 375.444 716.204 375.444 716.204C375.444 716.204 365.814 736.859 371.152 757.473Z" fill="#3F3D56" fill-opacity="0.03"/>
<path d="M378.997 753.043C393.647 767.939 395.436 790.837 395.436 790.837C395.436 790.837 373.474 789.585 358.824 774.689C344.174 759.793 342.385 736.895 342.385 736.895C342.385 736.895 364.348 738.147 378.997 753.043Z" fill="#42A867" fill-opacity="0.07"/>
<path d="M330.442 194.132C329.168 215.446 313.704 231.783 313.704 231.783C313.704 231.783 300.304 213.564 301.577 192.251C302.851 170.937 318.316 154.6 318.316 154.6C318.316 154.6 331.715 172.819 330.442 194.132Z" fill="#42A867" fill-opacity="0.07"/>
<path d="M169.236 59.3922C186.531 70.7812 192.839 92.7906 192.839 92.7906C192.839 92.7906 171.107 96.3348 153.812 84.9459C136.518 73.5569 130.21 51.5475 130.21 51.5475C130.21 51.5475 151.942 48.0033 169.236 59.3922Z" fill="#42A867" fill-opacity="0.07"/>
<path d="M130.615 319.235C147.909 330.623 154.217 352.633 154.217 352.633C154.217 352.633 132.486 356.177 115.191 344.788C97.8965 333.399 91.5885 311.39 91.5885 311.39C91.5885 311.39 113.32 307.846 130.615 319.235Z" fill="#42A867" fill-opacity="0.07"/>
<path d="M222.625 418.9C239.919 430.289 246.227 452.299 246.227 452.299C246.227 452.299 224.495 455.843 207.201 444.454C189.906 433.065 183.598 411.055 183.598 411.055C183.598 411.055 205.33 407.511 222.625 418.9Z" fill="#42A867" fill-opacity="0.07"/>
<path d="M482.205 97.3791C476.989 118.028 458.779 130.913 458.779 130.913C458.779 130.913 449.025 110.321 454.241 89.6729C459.457 69.0245 477.666 56.1387 477.666 56.1387C477.666 56.1387 487.42 76.7307 482.205 97.3791Z" fill="#42A867" fill-opacity="0.07"/>
<path d="M646.726 113.479C640.596 133.852 621.832 145.838 621.832 145.838C621.832 145.838 613.006 124.794 619.136 104.422C625.266 84.0492 644.031 72.0628 644.031 72.0628C644.031 72.0628 652.856 93.1067 646.726 113.479Z" fill="#42A867" fill-opacity="0.07"/>
<path d="M824.549 340.215C813.444 358.146 792.301 364.478 792.301 364.478C792.301 364.478 789.161 341.739 800.265 323.808C811.37 305.877 832.513 299.545 832.513 299.545C832.513 299.545 835.653 322.284 824.549 340.215Z" fill="#42A867" fill-opacity="0.07"/>
</svg>
