<svg width="843" height="800" viewBox="0 0 843 800" fill="none" xmlns="http://www.w3.org/2000/svg">
<path d="M360.977 821.854C360.977 821.854 415.874 654.915 385.61 552.183C355.347 449.451 331.417 453.464 331.417 453.464C331.417 453.464 290.597 441.425 239.923 476.74C189.249 512.054 175.877 522.487 147.021 508.041C118.165 493.594 112.535 471.121 42.1547 473.529C42.1547 473.529 79.4563 450.254 116.054 471.121C152.652 491.989 177.285 503.225 214.586 471.121C251.888 439.018 303.265 397.283 353.235 422.163C353.235 422.163 316.638 381.231 304.673 381.231C292.708 381.231 236.404 374.81 218.105 353.14C218.105 353.14 192.065 332.273 145.614 383.639C99.1628 435.005 110.424 435.005 68.8993 430.992C27.3749 426.979 -5 403.704 -5 403.704C-5 403.704 43.5623 426.176 73.122 414.94C102.682 403.704 128.019 361.166 154.059 346.72C180.1 332.273 195.584 313.011 230.774 333.878C230.774 333.878 215.994 264.855 187.842 270.473C159.69 276.092 201.214 254.422 201.214 254.422C201.214 254.422 193.472 137.243 178.692 129.217C163.913 121.191 173.062 100.324 145.614 96.3111C145.614 96.3111 179.396 91.4955 185.73 117.981C192.065 144.467 235.7 287.328 235.7 287.328C235.7 287.328 262.445 348.325 292.005 333.878C321.564 319.432 280.744 238.37 280.744 238.37L230.07 211.884C230.07 211.884 268.075 210.279 291.301 235.159C314.526 260.04 315.934 340.299 315.934 340.299C315.934 340.299 374.349 349.93 388.425 386.047C388.425 386.047 397.575 353.943 379.98 334.681C375.581 329.865 370.962 321.488 366.509 311.631C349.477 273.937 343.699 230.968 349.057 189.007C351.679 168.473 353.292 148.395 350.42 143.664C344.086 133.23 317.341 69.0229 315.23 52.1685C313.119 35.3141 317.341 6.10352e-05 317.341 6.10352e-05C317.341 6.10352e-05 318.045 43.34 326.491 56.9841C334.936 70.6281 358.866 138.046 358.866 138.046C358.866 138.046 358.866 223.121 378.572 264.855C398.279 306.59 436.284 353.14 434.173 383.639V401.296C434.173 401.296 476.401 355.548 473.585 340.299C470.77 325.05 467.251 288.933 440.507 267.263C413.762 245.593 396.167 211.082 415.17 161.321C434.173 111.56 434.173 102.732 434.173 102.732L421.504 164.531C421.504 164.531 414.466 219.91 434.173 239.172C453.879 258.435 479.92 293.749 479.92 293.749L474.289 178.175L492.588 223.923C492.588 223.923 532.001 166.137 578.452 146.874C624.903 127.612 653.759 60.1944 653.759 60.1944L693.172 24.8804L660.797 69.0229C660.797 69.0229 650.944 121.191 595.343 158.111C539.743 195.03 503.849 249.606 501.738 283.315C499.626 317.024 497.515 346.72 497.515 346.72C497.515 346.72 601.678 342.707 624.903 290.538C648.128 238.37 650.24 134.835 672.762 117.981C695.283 101.127 737.511 80.2592 737.511 80.2592L690.357 124.402C690.357 124.402 680.503 160.518 682.615 186.201C684.726 211.884 667.131 235.962 667.131 235.962L653.759 280.907L638.979 319.432C638.979 319.432 699.506 321.037 731.177 361.969C762.848 402.901 841.674 414.94 841.674 414.94L797.335 428.584C797.335 428.584 755.106 412.532 714.99 382.836C674.873 353.14 679.096 326.655 629.126 356.351C579.156 386.047 510.887 410.927 510.887 410.927C510.887 410.927 550.3 390.06 621.384 440.623C692.468 491.186 586.194 431.794 554.523 451.057C522.852 470.319 508.072 446.241 495.403 494.397C482.735 542.552 459.509 674.177 486.254 748.015L512.998 821.854H360.977Z" fill="#3F3D56" fill-opacity="0.03"/>
<path opacity="0.1" d="M625.971 290.538C607.102 332.922 534.81 343.52 508.355 346.005C507.613 356.885 507.124 363.765 507.124 363.765C507.124 363.765 611.287 359.752 634.512 307.584C657.738 255.415 659.849 151.881 682.371 135.027C684.759 133.239 687.371 131.406 690.129 129.558C690.903 126.319 691.424 124.402 691.424 124.402L738.579 80.2592C738.579 80.2592 696.351 101.127 673.829 117.981C651.308 134.835 649.196 238.37 625.971 290.538Z" fill="black" fill-opacity="0.14"/>
<path opacity="0.1" d="M504.6 209.456C504.446 229.216 502.197 240.969 502.197 240.969C502.197 240.969 541.594 183.207 588.032 163.932C590.777 161.952 593.561 160.003 596.411 158.111C652.011 121.191 661.864 69.0229 661.864 69.0229L694.239 24.8803L654.826 60.1944C654.826 60.1944 625.971 127.612 579.52 146.874C547.857 160.004 519.469 191.029 504.6 209.456Z" fill="black" fill-opacity="0.14"/>
<path opacity="0.1" d="M443.782 400.685V418.342C443.782 418.342 486.01 372.594 483.195 357.345C481.042 345.683 478.464 321.82 465.414 301.544C471.296 316.867 473.087 331.814 474.653 340.299C476.672 351.234 455.529 377.851 443.405 392.036C443.83 394.892 443.956 397.795 443.782 400.685Z" fill="black" fill-opacity="0.14"/>
<path opacity="0.1" d="M387.136 279.513C387.471 280.327 387.816 281.127 388.181 281.901C398.974 304.758 415.245 329.054 427.419 351.372C417.58 329.27 400.457 303.997 387.136 279.513Z" fill="black" fill-opacity="0.14"/>
<path opacity="0.1" d="M421.449 245.344C415.773 229.486 414.838 210.616 421.358 188.504C421.277 180.491 421.682 172.481 422.572 164.531L433.654 110.471C431.611 118.267 426.936 133.307 416.238 161.321C402.694 196.786 407.749 224.499 421.449 245.344Z" fill="black" fill-opacity="0.14"/>
<path opacity="0.1" d="M732.245 361.969C710.281 333.582 674.445 324.112 654.537 320.972L648.588 336.477C648.588 336.477 709.115 338.082 740.786 379.015C758.349 401.713 790.409 415.523 815.49 423.326L842.742 414.94C842.742 414.94 763.916 402.901 732.245 361.969Z" fill="black" fill-opacity="0.14"/>
<path opacity="0.1" d="M301.614 350.924C331.173 336.477 290.353 255.415 290.353 255.415L289.236 254.832C299.413 279.317 314.172 323.566 293.072 333.878C273.328 343.528 254.843 319.521 244.741 302.512C245.108 303.715 245.31 304.374 245.31 304.374C245.31 304.374 272.054 365.371 301.614 350.924Z" fill="black" fill-opacity="0.14"/>
<path opacity="0.1" d="M398.035 403.092C398.035 403.092 406.942 371.783 390.209 352.453C394.312 369.106 389.493 386.047 389.493 386.047C378.604 358.108 341.188 346.021 324.8 341.978C325.435 351.28 325.543 357.345 325.543 357.345C325.543 357.345 383.959 366.976 398.035 403.092Z" fill="black" fill-opacity="0.14"/>
<path opacity="0.1" d="M433.654 110.471C435.24 104.419 435.24 102.732 435.24 102.732L433.654 110.471Z" fill="black" fill-opacity="0.14"/>
<path opacity="0.1" d="M82.3041 432.139C82.4461 432.087 82.5902 432.039 82.7312 431.986C112.291 420.749 137.628 378.212 163.669 363.765C189.709 349.319 205.193 330.057 240.383 350.924C240.383 350.924 234.226 322.187 222.296 303.307C226.248 313.163 229.442 323.392 231.841 333.878C196.651 313.011 181.168 332.273 155.127 346.72C129.086 361.166 103.749 403.704 74.1897 414.94C44.63 426.176 -3.93231 403.704 -3.93231 403.704C-3.93231 403.704 28.4426 426.979 69.9669 430.992C74.717 431.451 78.7701 431.856 82.3041 432.139Z" fill="black" fill-opacity="0.14"/>
<path opacity="0.1" d="M375.728 821.854C388.623 776.774 419.636 652.114 395.219 569.229C384.675 533.434 374.901 510.609 366.639 496.048C372.818 509.832 379.573 528.065 386.678 552.183C416.941 654.915 362.045 821.854 362.045 821.854H375.728Z" fill="black" fill-opacity="0.14"/>
<path opacity="0.1" d="M100.873 479.985C109.502 480.984 117.901 483.756 125.663 488.167C154.567 504.647 176.012 515.099 202.125 502.96C208.073 499.377 214.727 494.943 222.4 489.663C222.998 489.165 223.591 488.688 224.196 488.167C261.497 456.063 312.875 414.329 362.844 439.209C362.844 439.209 352.745 427.917 341.425 417.195C295.624 404.382 249.756 441.771 215.654 471.121C178.352 503.225 153.719 491.989 117.122 471.121C80.5239 450.254 43.2224 473.529 43.2224 473.529C70.4155 472.599 87.938 475.385 100.873 479.985Z" fill="black" fill-opacity="0.14"/>
<path opacity="0.1" d="M172.312 121.426C173.114 122.968 174.087 124.386 175.206 125.645C174.384 124.119 173.413 122.703 172.312 121.426Z" fill="black" fill-opacity="0.14"/>
<path opacity="0.1" d="M300.91 252.205C301.998 253.378 303.017 254.631 303.961 255.957C300.878 247.505 297.071 240.197 292.368 235.159C269.143 210.279 231.138 211.884 231.138 211.884L278.8 236.796C286.967 240.271 294.473 245.502 300.91 252.205Z" fill="black" fill-opacity="0.14"/>
<path opacity="0.1" d="M351.488 143.664C354.36 148.395 352.746 168.473 350.124 189.007C344.766 230.968 350.544 273.937 367.576 311.631C369.818 316.69 372.323 321.592 375.075 326.312C358.857 289.19 353.419 247.14 358.666 206.052C361.288 185.518 362.901 165.441 360.029 160.71C353.695 150.276 326.951 86.0686 324.839 69.2142C324.206 62.6754 324.059 56.0874 324.398 49.5204C318.931 31.8312 318.409 0 318.409 0C318.409 0 314.186 35.3141 316.298 52.1685C318.409 69.0228 345.154 133.23 351.488 143.664Z" fill="black" fill-opacity="0.14"/>
<path opacity="0.1" d="M417.516 32.7086C417.234 31.1223 416.805 29.5744 416.238 28.0908C416.238 28.0908 416.779 29.823 417.516 32.7086Z" fill="black" fill-opacity="0.14"/>
<path opacity="0.1" d="M168.929 113.54C175.132 114.406 182.267 116.576 187.709 121.609C187.354 120.24 187.045 119.013 186.798 117.981C180.464 91.4955 146.681 96.3111 146.681 96.3111C161.948 98.5431 165.891 105.99 168.929 113.54Z" fill="black" fill-opacity="0.14"/>
<path d="M343.857 787.562C348.875 808.715 366.063 821.816 366.063 821.816C366.063 821.816 375.115 800.62 370.097 779.467C365.079 758.313 347.891 745.212 347.891 745.212C347.891 745.212 338.839 766.408 343.857 787.562Z" fill="#3F3D56" fill-opacity="0.03"/>
<path d="M351.23 783.016C365 798.301 366.682 821.799 366.682 821.799C366.682 821.799 346.039 820.514 332.269 805.228C318.5 789.942 316.818 766.444 316.818 766.444C316.818 766.444 337.461 767.73 351.23 783.016Z" fill="#42A867" fill-opacity="0.07"/>
<path d="M305.592 209.476C304.395 231.347 289.859 248.112 289.859 248.112C289.859 248.112 277.264 229.416 278.461 207.545C279.658 185.673 294.194 168.908 294.194 168.908C294.194 168.908 306.789 187.604 305.592 209.476Z" fill="#42A867" fill-opacity="0.07"/>
<path d="M154.07 71.2086C170.326 82.8956 176.255 105.481 176.255 105.481C176.255 105.481 155.828 109.118 139.573 97.4311C123.317 85.744 117.388 63.1585 117.388 63.1585C117.388 63.1585 137.814 59.5215 154.07 71.2086Z" fill="#42A867" fill-opacity="0.07"/>
<path d="M117.769 337.852C134.024 349.539 139.953 372.125 139.953 372.125C139.953 372.125 119.527 375.762 103.271 364.075C87.0157 352.388 81.0866 329.802 81.0866 329.802C81.0866 329.802 101.513 326.165 117.769 337.852Z" fill="#42A867" fill-opacity="0.07"/>
<path d="M204.251 440.127C220.507 451.814 226.436 474.399 226.436 474.399C226.436 474.399 206.009 478.036 189.754 466.349C173.498 454.662 167.569 432.076 167.569 432.076C167.569 432.076 187.996 428.439 204.251 440.127Z" fill="#42A867" fill-opacity="0.07"/>
<path d="M448.238 110.19C443.336 131.379 426.22 144.602 426.22 144.602C426.22 144.602 417.052 123.471 421.954 102.282C426.856 81.0929 443.973 67.8699 443.973 67.8699C443.973 67.8699 453.14 89.0009 448.238 110.19Z" fill="#42A867" fill-opacity="0.07"/>
<path d="M602.877 126.711C597.115 147.617 579.478 159.917 579.478 159.917C579.478 159.917 571.182 138.322 576.944 117.417C582.706 96.5109 600.343 84.2108 600.343 84.2108C600.343 84.2108 608.639 105.805 602.877 126.711Z" fill="#42A867" fill-opacity="0.07"/>
<path d="M770.017 359.382C759.58 377.782 739.707 384.28 739.707 384.28C739.707 384.28 736.755 360.945 747.193 342.545C757.63 324.145 777.503 317.647 777.503 317.647C777.503 317.647 780.454 340.982 770.017 359.382Z" fill="#42A867" fill-opacity="0.07"/>
</svg>
