<svg width="727" height="581" viewBox="0 0 727 581" fill="none" xmlns="http://www.w3.org/2000/svg">
<path d="M365.677 567.725H354.354L348.967 516.79L365.679 516.791L365.677 567.725Z" fill="#FFB8B8"/>
<path d="M332.516 579.986L368.103 579.988L368.104 563.953L346.266 563.951C344.461 563.951 342.673 564.366 341.004 565.172C339.336 565.977 337.82 567.159 336.544 568.647C335.267 570.136 334.254 571.904 333.563 573.849C332.872 575.795 332.516 577.88 332.516 579.986Z" fill="#2F2E41"/>
<path d="M470.176 560.149L459.087 562.823L444.967 514.215L461.332 510.269L470.176 560.149Z" fill="#FFB8B8"/>
<path d="M439.831 579.988L474.68 571.584L471.896 555.881L450.511 561.038C446.94 561.899 443.809 564.379 441.806 567.933C439.803 571.487 439.092 575.823 439.831 579.988Z" fill="#2F2E41"/>
<path d="M439.462 396.266C440.417 395.14 441.148 393.784 441.605 392.293C442.062 390.801 442.233 389.212 442.106 387.635C441.979 386.059 441.557 384.534 440.87 383.168C440.183 381.802 439.248 380.628 438.13 379.73L446.916 342.628L430.601 348.797L424.759 383.084C423.589 385.374 423.18 388.085 423.61 390.704C424.039 393.322 425.278 395.666 427.09 397.291C428.902 398.916 431.163 399.709 433.443 399.52C435.723 399.331 437.865 398.173 439.462 396.266Z" fill="#FFB8B8"/>
<path d="M368.985 549.05C369.973 549.051 370.93 548.642 371.682 547.895C372.434 547.148 372.934 546.112 373.09 544.975L394.193 409.366C394.238 409.019 394.379 408.699 394.595 408.455C394.81 408.21 395.087 408.053 395.385 408.009C395.684 407.964 395.986 408.034 396.247 408.207C396.508 408.381 396.714 408.648 396.834 408.97L443.846 535.822C444.264 536.933 445.022 537.822 445.972 538.316C446.923 538.81 447.997 538.874 448.985 538.494L465.499 532.023C466.037 531.812 466.533 531.474 466.955 531.031C467.377 530.588 467.717 530.049 467.954 529.446C468.19 528.844 468.318 528.192 468.33 527.529C468.342 526.867 468.238 526.209 468.023 525.596L445.294 460.664L426.32 362.694L426.186 362.576C425.82 362.252 389.317 330.476 364.373 355.893C341.546 379.152 345.794 512.061 346.877 538.468C346.916 539.512 347.245 540.512 347.815 541.318C348.385 542.124 349.164 542.692 350.035 542.935L367.977 548.906C368.307 549.001 368.646 549.049 368.985 549.05Z" fill="#2F2E41"/>
<path d="M404.756 247.781C392.228 247.781 382.072 235.936 382.072 221.325C382.072 206.714 392.228 194.87 404.756 194.87C417.284 194.87 427.441 206.714 427.441 221.325C427.441 235.936 417.284 247.781 404.756 247.781Z" fill="#FFB8B8"/>
<path d="M429.898 373.842C430.213 373.841 430.525 373.769 430.816 373.629C440.396 369.088 432.757 280.442 432.428 276.671L432.391 276.509C432.154 275.879 431.915 275.261 431.673 274.656C429.312 268.536 425.359 263.438 420.373 260.087C415.387 256.736 409.623 255.301 403.899 255.988C398.082 256.509 392.548 259.123 388.059 263.47C383.571 267.816 380.35 273.68 378.841 280.253L361.09 356.101C360.901 356.906 360.894 357.756 361.069 358.566C361.244 359.376 361.596 360.119 362.091 360.724C362.585 361.328 363.205 361.773 363.891 362.016C364.576 362.258 365.304 362.29 366.003 362.107C379.814 358.51 413.284 352.124 425.761 370.474C427.294 372.729 428.657 373.842 429.898 373.842Z" fill="#42A867"/>
<path d="M361.115 366.56C361.57 366.559 362.022 366.472 362.453 366.301C362.985 366.093 363.474 365.762 363.892 365.326C364.31 364.891 364.647 364.361 364.883 363.768L380.332 325.359L395.363 274.896C396.007 272.727 396.102 270.387 395.636 268.156C395.17 265.926 394.164 263.899 392.737 262.317C391.557 261.014 390.129 260.056 388.57 259.524C387.01 258.991 385.365 258.9 383.769 259.256C382.173 259.613 380.673 260.407 379.393 261.574C378.112 262.741 377.089 264.247 376.406 265.966L356.405 316.365L340.798 349.242C340.529 349.808 340.36 350.431 340.301 351.075C340.242 351.718 340.295 352.369 340.455 352.989C340.615 353.608 340.88 354.184 341.234 354.682C341.588 355.181 342.024 355.591 342.517 355.89L359.203 366.01C359.793 366.37 360.449 366.559 361.115 366.56Z" fill="#42A867"/>
<path d="M428.616 376.002C428.766 376.002 428.915 375.993 429.064 375.974L447.767 373.66C448.324 373.592 448.863 373.392 449.352 373.074C449.842 372.756 450.271 372.326 450.614 371.809C450.957 371.293 451.207 370.701 451.349 370.069C451.491 369.437 451.522 368.778 451.44 368.132L446.127 326.162L434.757 274.414C434.266 272.191 433.236 270.179 431.792 268.62C430.347 267.061 428.548 266.019 426.609 265.62C425.009 265.293 423.365 265.415 421.813 265.976C420.261 266.536 418.845 267.52 417.684 268.845C416.523 270.171 415.648 271.799 415.134 273.597C414.619 275.394 414.479 277.308 414.724 279.182L421.921 334.079L424.482 371.539C424.565 372.752 425.037 373.885 425.802 374.711C426.568 375.538 427.572 375.999 428.616 376.002Z" fill="#42A867"/>
<path d="M401.172 207.099L382.32 205.498C381.684 200.524 382.497 195.445 384.628 191.074C386.76 186.703 390.087 183.291 394.077 181.385C402.113 177.826 412.086 181.78 415.173 187.451C419.238 187.039 423.329 187.715 427.137 189.425C430.944 191.135 434.367 193.836 437.145 197.321C439.922 200.807 441.982 204.985 443.167 209.539C444.351 214.092 444.63 218.9 443.981 223.598C443.332 228.296 441.773 232.759 439.423 236.649C437.072 240.538 433.992 243.751 430.416 246.043C426.841 248.335 422.864 249.646 418.789 249.876C414.713 250.106 410.647 249.249 406.898 247.37C414.678 234.635 410.684 214.394 401.172 207.099Z" fill="#2F2E41"/>
<path d="M435.456 194.955C441.306 188.722 448.457 183.74 456.324 182.639C464.191 181.538 472.787 184.9 477.316 192.482C481.845 200.064 481.056 211.85 474.685 217.344C472.069 219.6 470.085 222.71 468.982 226.279C467.88 229.849 467.709 233.72 468.491 237.403C469.273 241.086 470.974 244.417 473.377 246.974C475.781 249.531 478.78 251.201 481.996 251.772C493.694 253.85 502.502 267.907 501.626 281.668C500.75 295.43 491.081 307.427 479.549 310.515C468.016 313.603 455.398 308.292 447.349 298.178C439.3 288.063 435.696 273.703 436.613 259.945C437.53 246.187 442.709 233.08 450.154 222.355C452.176 219.443 450.657 214.825 448.06 212.62C445.462 210.414 442.154 209.798 439.113 208.588C436.073 207.377 432.934 205.096 432.233 201.439C431.532 197.783 435.087 193.512 435.456 194.955Z" fill="#2F2E41"/>
<path d="M341.793 413.545C328.647 413.545 317.991 402.031 317.991 387.827C317.991 373.623 328.647 362.108 341.793 362.108C354.938 362.108 365.595 373.623 365.595 387.827C365.595 402.031 354.938 413.545 341.793 413.545Z" fill="#376447"/>
<path d="M335.535 399.922L329 389.76L332.801 386.185L335.896 390.996L346.349 377.65L349.846 381.656L335.535 399.922Z" fill="white"/>
<path d="M360.649 384.417C361.604 383.292 362.336 381.935 362.792 380.444C363.249 378.953 363.42 377.363 363.293 375.787C363.166 374.21 362.744 372.685 362.057 371.319C361.37 369.954 360.435 368.78 359.317 367.881L368.104 330.779L351.789 336.948L345.946 371.235C344.776 373.526 344.367 376.237 344.797 378.855C345.226 381.474 346.465 383.818 348.277 385.442C350.089 387.067 352.35 387.86 354.63 387.671C356.91 387.482 359.052 386.325 360.649 384.417Z" fill="#FFB8B8"/>
<g clip-path="url(#clip0_104_42)">
<path d="M55.9871 63.6062H333.579V0H55.9871V63.6062Z" fill="white"/>
<path d="M297.609 47.961C289.285 47.961 282.537 40.7269 282.537 31.8031C282.537 22.8794 289.285 15.6453 297.609 15.6453C305.933 15.6453 312.681 22.8794 312.681 31.8031C312.681 40.7269 305.933 47.961 297.609 47.961Z" fill="#376447"/>
<path d="M262.799 21.0312C263.465 21.0312 264.104 21.3149 264.576 21.82C265.047 22.325 265.311 23.01 265.311 23.7242C265.311 24.4384 265.047 25.1234 264.576 25.6284C264.104 26.1334 263.465 26.4172 262.799 26.4172H79.3915C78.7263 26.4155 78.0889 26.131 77.6191 25.6262C77.1493 25.1213 76.8854 24.4373 76.8854 23.7242C76.8854 23.0111 77.1493 22.3271 77.6191 21.8222C78.0889 21.3174 78.7263 21.0329 79.3915 21.0312H262.799Z" fill="#3F3D56"/>
<path d="M262.799 37.189C263.466 37.1875 264.105 37.4698 264.577 37.9738C265.049 38.4777 265.315 39.1621 265.317 39.8763C265.318 40.5905 265.055 41.2761 264.585 41.7822C264.115 42.2883 263.476 42.5735 262.81 42.575H146.858C146.527 42.5756 146.2 42.5063 145.895 42.3713C145.59 42.2362 145.312 42.0379 145.079 41.7878C144.845 41.5377 144.66 41.2406 144.533 40.9136C144.407 40.5866 144.341 40.236 144.341 39.882C144.341 39.528 144.407 39.1774 144.533 38.8504C144.66 38.5234 144.845 38.2263 145.079 37.9762C145.312 37.726 145.59 37.5278 145.895 37.3927C146.2 37.2576 146.527 37.1884 146.858 37.189H262.799Z" fill="#3F3D56"/>
<path d="M55.9871 63.6062H333.579V0H55.9871V63.6062ZM329.341 59.0629H60.2251V4.5433H329.341V59.0629Z" fill="#CCCCCC"/>
<path d="M55.9871 143.114H333.579V79.5078H55.9871V143.114Z" fill="white"/>
<path d="M297.609 127.469C289.285 127.469 282.537 120.235 282.537 111.311C282.537 102.387 289.285 95.1531 297.609 95.1531C305.933 95.1531 312.681 102.387 312.681 111.311C312.681 120.235 305.933 127.469 297.609 127.469Z" fill="#E6E6E6"/>
<path d="M262.799 100.539C263.465 100.539 264.104 100.823 264.576 101.328C265.047 101.833 265.311 102.518 265.311 103.232C265.311 103.946 265.047 104.631 264.576 105.136C264.104 105.641 263.465 105.925 262.799 105.925H79.3915C78.7263 105.923 78.0889 105.639 77.6191 105.134C77.1493 104.629 76.8854 103.945 76.8854 103.232C76.8854 102.519 77.1493 101.835 77.6191 101.33C78.0889 100.825 78.7263 100.541 79.3915 100.539H262.799Z" fill="#E6E6E6"/>
<path d="M262.799 116.697C263.466 116.695 264.105 116.978 264.577 117.482C265.049 117.986 265.315 118.67 265.317 119.384C265.318 120.098 265.055 120.784 264.585 121.29C264.115 121.796 263.476 122.081 262.81 122.083H146.858C146.527 122.083 146.2 122.014 145.895 121.879C145.59 121.744 145.312 121.546 145.079 121.296C144.845 121.045 144.66 120.748 144.533 120.421C144.407 120.094 144.341 119.744 144.341 119.39C144.341 119.036 144.407 118.685 144.533 118.358C144.66 118.031 144.845 117.734 145.079 117.484C145.312 117.234 145.59 117.036 145.895 116.901C146.2 116.765 146.527 116.696 146.858 116.697H262.799Z" fill="#E6E6E6"/>
<path d="M55.9871 143.114H333.579V79.5078H55.9871V143.114ZM329.341 138.571H60.2251V84.0511H329.341V138.571Z" fill="#E6E6E6"/>
<path d="M55.9871 222.622H333.579V159.016H55.9871V222.622Z" fill="white"/>
<path d="M297.609 206.977C289.285 206.977 282.537 199.742 282.537 190.819C282.537 181.895 289.285 174.661 297.609 174.661C305.933 174.661 312.681 181.895 312.681 190.819C312.681 199.742 305.933 206.977 297.609 206.977Z" fill="#E6E6E6"/>
<path d="M262.799 180.047C263.465 180.047 264.104 180.33 264.576 180.836C265.047 181.341 265.311 182.026 265.311 182.74C265.311 183.454 265.047 184.139 264.576 184.644C264.104 185.149 263.465 185.433 262.799 185.433H79.3915C78.7263 185.431 78.0889 185.147 77.6191 184.642C77.1493 184.137 76.8854 183.453 76.8854 182.74C76.8854 182.027 77.1493 181.343 77.6191 180.838C78.0889 180.333 78.7263 180.048 79.3915 180.047H262.799Z" fill="#E6E6E6"/>
<path d="M262.799 196.205C263.466 196.203 264.105 196.485 264.577 196.989C265.049 197.493 265.315 198.178 265.317 198.892C265.318 199.606 265.055 200.292 264.585 200.798C264.115 201.304 263.476 201.589 262.81 201.591H146.858C146.527 201.591 146.2 201.522 145.895 201.387C145.59 201.252 145.312 201.053 145.079 200.803C144.845 200.553 144.66 200.256 144.533 199.929C144.407 199.602 144.341 199.252 144.341 198.898C144.341 198.544 144.407 198.193 144.533 197.866C144.66 197.539 144.845 197.242 145.079 196.992C145.312 196.742 145.59 196.543 145.895 196.408C146.2 196.273 146.527 196.204 146.858 196.205H262.799Z" fill="#E6E6E6"/>
<path d="M55.9871 222.622H333.579V159.016H55.9871V222.622ZM329.341 218.079H60.2251V163.559H329.341V218.079Z" fill="#E6E6E6"/>
<path d="M18.6729 51.7938C8.36012 51.7938 -9.53674e-05 42.8314 -9.53674e-05 31.7758C-9.53674e-05 20.7201 8.36012 11.7577 18.6729 11.7577C28.9858 11.7577 37.3459 20.7201 37.3459 31.7758C37.3459 42.8314 28.9858 51.7938 18.6729 51.7938Z" fill="#376447"/>
<path d="M15.3684 39.7017L9.96973 32.1907L13.1092 29.5482L15.666 33.1047L24.3017 23.24L27.1901 26.2007L15.3684 39.7017Z" fill="white"/>
</g>
<path d="M645.47 480.643C659.174 487.735 672.011 497.232 684.034 508.946V526.857C678.167 525.253 655.772 518.609 646.93 508.1C636.71 495.955 634.892 477.519 643.404 472.904C645.621 471.704 648.314 471.555 651.268 472.213C660.586 477.591 669.497 484.114 678.009 491.715C681.025 495.436 682.891 500.173 684.034 504.96V505.187C673.023 492.882 660.076 484.899 645.47 480.643Z" fill="#42A867"/>
<path d="M645.189 370.792C659.135 377.949 672.198 387.532 684.434 399.353V403.481C683.263 403.163 681.455 402.655 679.227 401.958C669.219 392.514 657.81 386.155 645.189 382.506C654.019 387.036 662.498 392.542 670.635 398.973C662.029 395.677 651.965 390.79 646.674 384.554C646.114 383.895 645.581 383.232 645.076 382.562C636.176 370.803 635.588 357.906 643.787 353.499C652.449 348.842 667.635 355.441 678.035 367.69C684.048 374.78 685.737 385.781 686.08 393.786C685.527 394.366 684.98 394.957 684.434 395.559C673.228 383.142 660.053 375.087 645.189 370.792Z" fill="#42A867"/>
<path d="M723.919 435.654V435.66C722.913 437.824 721.651 440.011 720.149 442.164C717.917 445.37 714.487 448.344 710.603 451.004C706.443 453.857 701.751 456.347 697.436 458.368C691.412 461.194 686.118 463.11 684.034 463.837V462.102C696.004 451.032 708.732 442.01 722.303 435.214C707.889 439.278 695.054 446.769 684.034 458.186V450.536C696.004 439.466 708.732 430.444 722.303 423.647C707.889 427.712 695.054 435.203 684.034 446.62V438.97C695.848 428.048 708.392 419.12 721.765 412.357C728.03 416.273 728.575 425.718 723.919 435.654Z" fill="#42A867"/>
<path d="M686.08 387.504H684.034V581H686.08V387.504Z" fill="#3F3D56"/>
<defs>
<clipPath id="clip0_104_42">
<rect width="658" height="388.302" fill="white" transform="matrix(-1 0 0 1 658 0)"/>
</clipPath>
</defs>
</svg>
