<svg width="603" height="610" viewBox="0 0 603 610" fill="none" xmlns="http://www.w3.org/2000/svg">
<path d="M186.209 447.481H110.676C108.771 447.481 107.222 445.876 107.222 443.903C107.222 441.93 108.771 440.326 110.676 440.326H186.209C188.113 440.326 189.662 441.93 189.662 443.903C189.662 445.876 188.113 447.481 186.209 447.481Z" fill="#42A867"/>
<path d="M51.3104 466.634C51.3104 467.277 51.8086 467.793 52.429 467.793H244.455C245.075 467.793 245.573 467.277 245.573 466.634C245.573 465.991 245.075 465.475 244.455 465.475H52.429C51.8086 465.475 51.3104 465.991 51.3104 466.634Z" fill="#3F3D56"/>
<path d="M456.454 233.139C490.198 233.139 517.552 204.799 517.552 169.839C517.552 134.88 490.198 106.54 456.454 106.54C422.711 106.54 395.356 134.88 395.356 169.839C395.356 204.799 422.711 233.139 456.454 233.139Z" fill="#42A867" fill-opacity="0.27"/>
<path d="M0 546.62C0 547.263 0.49821 547.779 1.11862 547.779H492.053C492.674 547.779 493.172 547.263 493.172 546.62C493.172 545.977 492.674 545.461 492.053 545.461H1.11862C0.49821 545.461 0 545.977 0 546.62Z" fill="#3F3D56"/>
<path d="M7.10133 468.361L5.53088 466.579L158.805 321.676L214.027 347.323L273.659 241.376L322.652 216.91L368.045 295.291C392.552 229.558 454.014 160.787 527.661 91.0139L529.473 92.5336C460.399 161.047 401.3 229.871 367.761 299.493L325.774 226.78C323.79 223.345 319.622 222.018 316.119 223.706C289.339 236.616 267.001 257.689 252.093 284.106L214.739 350.299L206.213 346.339C177.696 333.095 144.312 338.646 121.227 360.469L7.10133 468.361Z" fill="#3F3D56"/>
<path d="M531.116 104.206L528.789 104.373L525.035 95.9424L516.627 94.1732L516.301 91.7802L530.159 89.7399L531.116 104.206Z" fill="#3F3D56"/>
<path d="M499.993 609.026H351.094C346.052 609.026 341.949 604.776 341.949 599.551V440.078C341.949 434.854 346.052 430.603 351.094 430.603H499.993C505.037 430.603 509.139 434.854 509.139 440.078V599.551C509.139 604.776 505.037 609.026 499.993 609.026Z" fill="white"/>
<path d="M498.985 606.37H350.085C344.524 606.37 340 601.683 340 595.922V436.449C340 430.688 344.525 426 350.085 426H498.985C504.545 426 509.07 430.688 509.07 436.449V595.922C509.07 601.683 504.545 606.37 498.985 606.37ZM350.085 427.948C345.561 427.948 341.88 431.761 341.88 436.449V595.922C341.88 600.609 345.561 604.423 350.085 604.423H498.985C503.509 604.423 507.19 600.609 507.19 595.922V436.449C507.19 431.761 503.509 427.948 498.985 427.948H350.085Z" fill="#3F3D56"/>
<path d="M431.42 567.131H419.148C417.653 567.131 416.438 566.159 416.438 564.964V510.224C416.438 509.029 417.653 508.057 419.148 508.057H431.42C432.914 508.057 434.13 509.029 434.13 510.224V564.964C434.13 566.159 432.914 567.131 431.42 567.131Z" fill="#42A867"/>
<path d="M390.847 534.872C389.639 534.872 388.657 535.657 388.657 536.623V564.903C388.657 565.868 389.639 566.654 390.847 566.654H403.119C404.326 566.654 405.308 565.868 405.308 564.903V536.623C405.308 535.657 404.326 534.872 403.119 534.872H390.847Z" fill="#42A867"/>
<path d="M459.721 567.131H447.448C445.954 567.131 444.739 566.159 444.739 564.964V475.254C444.739 474.059 445.954 473.087 447.448 473.087H459.721C461.215 473.087 462.43 474.059 462.43 475.254V564.964C462.43 566.159 461.215 567.131 459.721 567.131Z" fill="#42A867"/>
<path d="M195.63 173.899H181.612C179.905 173.899 178.516 172.789 178.516 171.424V108.894C178.516 107.529 179.905 106.419 181.612 106.419H195.63C197.337 106.419 198.725 107.529 198.725 108.894V171.424C198.725 172.789 197.337 173.899 195.63 173.899Z" fill="#42A867"/>
<path d="M149.284 137.05C147.905 137.05 146.783 137.947 146.783 139.05V171.354C146.783 172.457 147.905 173.354 149.284 173.354H163.302C164.681 173.354 165.803 172.457 165.803 171.354V139.05C165.803 137.947 164.681 137.05 163.302 137.05H149.284Z" fill="#42A867"/>
<path d="M227.958 173.899H213.939C212.233 173.899 210.844 172.789 210.844 171.424V68.9494C210.844 67.5844 212.233 66.4741 213.939 66.4741H227.958C229.665 66.4741 231.053 67.5844 231.053 68.9494V171.424C231.053 172.789 229.665 173.899 227.958 173.899Z" fill="#42A867"/>
<path d="M71.5237 160.757H42.9891C41.0848 160.757 39.5354 159.151 39.5354 157.178C39.5354 155.206 41.0848 153.601 42.9891 153.601H71.5237C73.428 153.601 74.9767 155.206 74.9767 157.178C74.9767 159.151 73.428 160.757 71.5237 160.757Z" fill="#E6E6E6"/>
<path d="M71.5237 110.04H42.9891C41.0848 110.04 39.5354 108.435 39.5354 106.462C39.5354 104.489 41.0848 102.885 42.9891 102.885H71.5237C73.428 102.885 74.9767 104.489 74.9767 106.462C74.9767 108.435 73.428 110.04 71.5237 110.04Z" fill="#E6E6E6"/>
<path d="M71.5237 73.466H42.9891C41.0848 73.466 39.5354 71.8607 39.5354 69.8878C39.5354 67.915 41.0848 66.3104 42.9891 66.3104H71.5237C73.428 66.3104 74.9767 67.915 74.9767 69.8878C74.9767 71.8607 73.428 73.466 71.5237 73.466Z" fill="#E6E6E6"/>
<path d="M38.3907 174.076C38.3907 174.719 38.8889 175.235 39.5093 175.235H231.535C232.155 175.235 232.653 174.719 232.653 174.076C232.653 173.433 232.155 172.917 231.535 172.917H39.5093C38.8889 172.917 38.3907 173.433 38.3907 174.076Z" fill="#3F3D56"/>
<path d="M408.737 474.016C408.737 474.659 409.235 475.175 409.856 475.175H601.881C602.502 475.175 603 474.659 603 474.016C603 473.373 602.502 472.857 601.881 472.857H409.856C409.235 472.857 408.737 473.373 408.737 474.016Z" fill="#3F3D56"/>
<path d="M352.339 568.478C352.339 569.121 352.838 569.637 353.458 569.637H545.484C546.104 569.637 546.602 569.121 546.602 568.478C546.602 567.835 546.104 567.319 545.484 567.319H353.458C352.838 567.319 352.339 567.835 352.339 568.478Z" fill="#3F3D56"/>
<path d="M355.9 493.624C363.764 500.743 366.72 510.872 362.504 516.249C358.287 521.626 348.496 520.214 340.631 513.092C337.453 510.293 334.944 506.717 333.316 502.664L300.353 472.051L314.05 455.735L345.092 487.645C349.088 488.682 352.794 490.732 355.9 493.624Z" fill="#FCB4B4"/>
<path d="M329.283 470.975L288.986 415.37L250.819 340.306L249.83 444.412L307.04 494.907L329.283 470.975Z" fill="#2F2E41"/>
<path d="M248.992 276.667L258.223 231.564L289.078 233.159L296.998 265.879L248.992 276.667Z" fill="#FCB4B4"/>
<path opacity="0.1" d="M248.992 276.667L258.223 231.564L289.078 233.159L296.998 265.879L248.992 276.667Z" fill="black"/>
<path d="M272.887 243.667C291.964 243.667 307.43 227.047 307.43 206.546C307.43 186.046 291.964 169.426 272.887 169.426C253.809 169.426 238.343 186.046 238.343 206.546C238.343 227.047 253.809 243.667 272.887 243.667Z" fill="#FCB4B4"/>
<path d="M257.435 220.882C257.435 220.882 253.951 220.845 246.702 219.397C239.453 217.948 252.039 236.15 252.039 236.15C217.928 220.844 228.843 182.021 228.843 182.021C194.224 174.906 208.727 141.835 208.727 141.835C208.727 141.835 220.138 118.171 255.218 119.677C290.298 121.183 273.726 158.362 273.726 158.362C296.581 158.409 299.153 180.543 299.153 180.543C299.153 180.543 290.913 181.649 275.94 185.732C260.966 189.816 257.435 220.882 257.435 220.882Z" fill="#2F2E41"/>
<path d="M256.066 262.463L254.506 259.198C254.506 259.198 226.747 262.655 222.192 267.219C217.638 271.784 207.227 292.061 207.227 292.061L230.001 313.037L256.066 262.463Z" fill="#FFB6B6"/>
<path d="M290.513 261.67C290.513 261.67 311.335 255.702 323.047 268.287C334.759 280.873 348.423 303.947 348.423 303.947L347.772 322.127L315.239 305.274L290.513 261.67Z" fill="#FFB6B6"/>
<path d="M295.821 259.198C295.821 259.198 323.047 248.71 340.615 271.084C358.183 293.459 363.389 364.08 363.389 364.08C363.389 364.08 403.08 494.832 393.319 496.231C383.559 497.629 323.997 501.494 323.997 501.494L303.527 359.185L294.417 259.198L295.821 259.198Z" fill="#2F2E41"/>
<path d="M233.254 385.056L226.747 410.228L315.239 417.22C315.239 417.22 311.985 396.177 315.239 388.519L233.254 385.056Z" fill="#FCB4B4"/>
<path d="M283.356 548.672L287.26 608.804L336.398 607.405L334.759 546.574L283.356 548.672Z" fill="#FCB4B4"/>
<path d="M206.691 542.724L192.262 608.105L243.703 607.731L256.809 554.29L206.691 542.724Z" fill="#FCB4B4"/>
<path d="M294.417 259.198H254.506L222.192 305.346L229.35 399.739C229.35 399.739 245.617 394.845 268.39 394.845H317.191C317.191 394.845 310.033 370.373 319.143 360.584C328.252 350.795 321.745 305.346 321.745 305.346L294.417 259.198Z" fill="#42A867"/>
<path d="M223.494 402.536L187.056 544.476C187.056 544.476 240.711 567.644 273.095 560.955C305.479 554.265 349.724 552.168 349.724 552.168L318.492 408.13L223.494 402.536Z" fill="#2F2E41"/>
<path d="M307.753 454.468C315.617 461.587 318.573 471.716 314.357 477.093C310.14 482.47 300.349 481.058 292.484 473.936C289.306 471.137 286.797 467.561 285.169 463.508L252.206 432.895L265.903 416.579L296.945 448.489C300.941 449.526 304.647 451.576 307.753 454.468Z" fill="#FCB4B4"/>
<path d="M287.643 429.722L247.346 374.117L209.179 299.053L208.189 403.159L265.4 453.653L287.643 429.722Z" fill="#2F2E41"/>
<path d="M257.226 259.198C257.226 259.198 230.001 248.71 212.432 271.084C194.864 293.459 189.659 364.08 189.659 364.08C189.659 364.08 149.968 494.832 159.728 496.231C169.488 497.629 229.05 501.494 229.05 501.494L249.521 359.185L258.63 259.198L257.226 259.198Z" fill="#2F2E41"/>
<path d="M452.212 213.51V202.624C445.313 202.513 438.169 200.576 434 197.876L436.859 190.655C441.144 193.244 448.695 195.292 455.356 195.292C463.811 195.292 469.494 190.876 469.494 184.726C469.494 178.797 464.857 175.132 456.042 171.896C443.901 167.591 437.762 162.622 437.762 153.242C437.762 144.294 444.104 137.504 455.058 135.886V125H461.081V135.456C468.225 135.671 473.1 137.393 476.557 139.232L473.576 146.342C469.307 143.867 464.329 142.584 459.261 142.652C450.094 142.652 448.002 147.615 448.002 151.926C448.002 157.529 451.044 160.334 461.4 164.227C473.664 168.754 481.208 174.363 481.208 183.957C481.208 192.476 474.662 200.453 462.405 202.285V213.51H452.212Z" fill="#3F3D56" fill-opacity="0.56"/>
</svg>
