<svg width="843" height="800" viewBox="0 0 843 800" fill="none" xmlns="http://www.w3.org/2000/svg">
<path d="M360.977 821.854C360.977 821.854 415.874 654.915 385.61 552.183C355.347 449.451 331.417 453.464 331.417 453.464C331.417 453.464 290.597 441.425 239.923 476.74C189.249 512.054 175.877 522.487 147.021 508.041C118.165 493.594 112.535 471.121 42.1548 473.529C42.1548 473.529 79.4563 450.254 116.054 471.121C152.652 491.989 177.285 503.225 214.586 471.121C251.888 439.018 303.265 397.283 353.235 422.163C353.235 422.163 316.638 381.231 304.673 381.231C292.708 381.231 236.404 374.81 218.105 353.14C218.105 353.14 192.065 332.273 145.614 383.639C99.1628 435.005 110.424 435.005 68.8993 430.992C27.3749 426.979 -5 403.704 -5 403.704C-5 403.704 43.5623 426.176 73.122 414.94C102.682 403.704 128.019 361.166 154.059 346.72C180.1 332.273 195.584 313.011 230.774 333.878C230.774 333.878 215.994 264.855 187.842 270.473C159.69 276.092 201.214 254.422 201.214 254.422C201.214 254.422 193.472 137.243 178.692 129.217C163.913 121.191 173.062 100.324 145.614 96.3111C145.614 96.3111 179.396 91.4955 185.73 117.981C192.065 144.467 235.7 287.328 235.7 287.328C235.7 287.328 262.445 348.325 292.005 333.878C321.564 319.432 280.744 238.37 280.744 238.37L230.07 211.884C230.07 211.884 268.075 210.279 291.301 235.159C314.526 260.04 315.934 340.299 315.934 340.299C315.934 340.299 374.349 349.93 388.425 386.047C388.425 386.047 397.575 353.943 379.98 334.681C375.581 329.865 370.962 321.488 366.509 311.631C349.477 273.937 343.699 230.968 349.057 189.007C351.679 168.473 353.292 148.395 350.42 143.664C344.086 133.23 317.341 69.0229 315.23 52.1685C313.119 35.3141 317.341 6.10352e-05 317.341 6.10352e-05C317.341 6.10352e-05 318.045 43.34 326.491 56.9841C334.936 70.6281 358.866 138.046 358.866 138.046C358.866 138.046 358.866 223.121 378.572 264.855C398.279 306.59 436.284 353.14 434.173 383.639V401.296C434.173 401.296 476.401 355.548 473.585 340.299C470.77 325.05 467.251 288.933 440.507 267.263C413.762 245.593 396.167 211.082 415.17 161.321C434.173 111.56 434.173 102.732 434.173 102.732L421.504 164.531C421.504 164.531 414.466 219.91 434.173 239.172C453.879 258.435 479.92 293.749 479.92 293.749L474.289 178.175L492.588 223.923C492.588 223.923 532.001 166.137 578.452 146.874C624.903 127.612 653.759 60.1944 653.759 60.1944L693.172 24.8804L660.797 69.0229C660.797 69.0229 650.944 121.191 595.343 158.111C539.743 195.03 503.849 249.606 501.738 283.315C499.626 317.024 497.515 346.72 497.515 346.72C497.515 346.72 601.677 342.707 624.903 290.538C648.128 238.37 650.24 134.835 672.762 117.981C695.283 101.127 737.511 80.2592 737.511 80.2592L690.357 124.402C690.357 124.402 680.503 160.518 682.615 186.201C684.726 211.884 667.131 235.962 667.131 235.962L653.759 280.907L638.979 319.432C638.979 319.432 699.506 321.037 731.177 361.969C762.848 402.901 841.674 414.94 841.674 414.94L797.335 428.584C797.335 428.584 755.106 412.532 714.99 382.836C674.873 353.14 679.096 326.655 629.126 356.351C579.156 386.047 510.887 410.927 510.887 410.927C510.887 410.927 550.3 390.06 621.384 440.623C692.468 491.186 586.194 431.794 554.523 451.057C522.852 470.319 508.072 446.241 495.403 494.397C482.735 542.552 459.509 674.177 486.254 748.016L512.998 821.854H360.977Z" fill="#3F3D56" fill-opacity="0.03"/>
<path opacity="0.1" d="M625.971 290.538C607.102 332.922 534.81 343.52 508.355 346.005C507.613 356.885 507.124 363.765 507.124 363.765C507.124 363.765 611.287 359.752 634.512 307.584C657.738 255.415 659.849 151.881 682.371 135.027C684.759 133.239 687.371 131.406 690.129 129.558C690.903 126.319 691.424 124.402 691.424 124.402L738.579 80.2592C738.579 80.2592 696.351 101.127 673.829 117.981C651.308 134.835 649.196 238.37 625.971 290.538Z" fill="black" fill-opacity="0.14"/>
<path opacity="0.1" d="M504.6 209.456C504.446 229.216 502.197 240.969 502.197 240.969C502.197 240.969 541.594 183.207 588.032 163.932C590.777 161.952 593.561 160.003 596.411 158.111C652.011 121.191 661.864 69.0229 661.864 69.0229L694.239 24.8803L654.826 60.1944C654.826 60.1944 625.971 127.612 579.52 146.874C547.857 160.004 519.469 191.029 504.6 209.456Z" fill="black" fill-opacity="0.14"/>
<path opacity="0.1" d="M443.782 400.685V418.342C443.782 418.342 486.01 372.594 483.195 357.345C481.042 345.683 478.464 321.82 465.414 301.544C471.296 316.867 473.087 331.814 474.653 340.299C476.672 351.234 455.529 377.851 443.405 392.036C443.83 394.892 443.956 397.795 443.782 400.685Z" fill="black" fill-opacity="0.14"/>
<path opacity="0.1" d="M387.136 279.513C387.471 280.327 387.816 281.127 388.181 281.901C398.974 304.758 415.245 329.054 427.419 351.372C417.58 329.27 400.457 303.997 387.136 279.513Z" fill="black" fill-opacity="0.14"/>
<path opacity="0.1" d="M421.448 245.344C415.773 229.486 414.838 210.616 421.358 188.504C421.277 180.491 421.682 172.481 422.572 164.531L433.654 110.471C431.611 118.267 426.936 133.307 416.237 161.321C402.694 196.786 407.749 224.499 421.448 245.344Z" fill="black" fill-opacity="0.14"/>
<path opacity="0.1" d="M732.245 361.969C710.281 333.582 674.445 324.112 654.537 320.972L648.588 336.477C648.588 336.477 709.115 338.082 740.786 379.015C758.349 401.713 790.409 415.523 815.49 423.326L842.742 414.94C842.742 414.94 763.916 402.901 732.245 361.969Z" fill="black" fill-opacity="0.14"/>
<path opacity="0.1" d="M301.614 350.924C331.173 336.477 290.353 255.415 290.353 255.415L289.236 254.832C299.413 279.317 314.172 323.566 293.072 333.878C273.328 343.528 254.843 319.521 244.741 302.512C245.108 303.715 245.31 304.374 245.31 304.374C245.31 304.374 272.054 365.371 301.614 350.924Z" fill="black" fill-opacity="0.14"/>
<path opacity="0.1" d="M398.035 403.092C398.035 403.092 406.942 371.783 390.209 352.453C394.312 369.106 389.493 386.047 389.493 386.047C378.604 358.108 341.188 346.021 324.8 341.978C325.435 351.28 325.543 357.345 325.543 357.345C325.543 357.345 383.959 366.976 398.035 403.092Z" fill="black" fill-opacity="0.14"/>
<path opacity="0.1" d="M433.654 110.471C435.24 104.419 435.24 102.732 435.24 102.732L433.654 110.471Z" fill="black" fill-opacity="0.14"/>
<path opacity="0.1" d="M82.304 432.139C82.446 432.087 82.5901 432.039 82.7311 431.986C112.291 420.749 137.628 378.212 163.668 363.765C189.709 349.319 205.193 330.057 240.383 350.924C240.383 350.924 234.226 322.187 222.296 303.307C226.248 313.163 229.441 323.392 231.841 333.878C196.651 313.011 181.168 332.273 155.127 346.72C129.086 361.166 103.749 403.704 74.1897 414.94C44.63 426.176 -3.93237 403.704 -3.93237 403.704C-3.93237 403.704 28.4425 426.979 69.9669 430.992C74.717 431.451 78.7701 431.856 82.304 432.139Z" fill="black" fill-opacity="0.14"/>
<path opacity="0.1" d="M375.728 821.854C388.624 776.774 419.636 652.114 395.22 569.229C384.675 533.434 374.901 510.609 366.639 496.048C372.818 509.832 379.573 528.065 386.678 552.183C416.942 654.915 362.045 821.854 362.045 821.854H375.728Z" fill="black" fill-opacity="0.14"/>
<path opacity="0.1" d="M100.873 479.985C109.502 480.984 117.901 483.756 125.663 488.167C154.567 504.647 176.012 515.099 202.125 502.96C208.073 499.377 214.727 494.943 222.4 489.663C222.998 489.165 223.591 488.688 224.196 488.167C261.497 456.063 312.875 414.329 362.844 439.209C362.844 439.209 352.745 427.917 341.425 417.195C295.624 404.382 249.756 441.771 215.654 471.121C178.352 503.225 153.719 491.989 117.122 471.121C80.5239 450.254 43.2224 473.529 43.2224 473.529C70.4155 472.599 87.938 475.385 100.873 479.985Z" fill="black" fill-opacity="0.14"/>
<path opacity="0.1" d="M172.312 121.426C173.114 122.968 174.087 124.386 175.206 125.645C174.384 124.119 173.413 122.703 172.312 121.426Z" fill="black" fill-opacity="0.14"/>
<path opacity="0.1" d="M300.91 252.205C301.998 253.378 303.017 254.631 303.961 255.957C300.878 247.505 297.071 240.197 292.368 235.159C269.143 210.279 231.138 211.884 231.138 211.884L278.8 236.796C286.967 240.271 294.473 245.502 300.91 252.205Z" fill="black" fill-opacity="0.14"/>
<path opacity="0.1" d="M351.488 143.664C354.36 148.395 352.746 168.473 350.124 189.007C344.766 230.968 350.544 273.937 367.576 311.631C369.818 316.69 372.323 321.592 375.076 326.312C358.857 289.19 353.419 247.14 358.666 206.052C361.288 185.518 362.902 165.441 360.029 160.71C353.695 150.276 326.951 86.0686 324.839 69.2142C324.206 62.6754 324.059 56.0874 324.398 49.5204C318.931 31.8312 318.409 0 318.409 0C318.409 0 314.186 35.3141 316.298 52.1685C318.409 69.0228 345.154 133.23 351.488 143.664Z" fill="black" fill-opacity="0.14"/>
<path opacity="0.1" d="M417.516 32.7086C417.234 31.1223 416.805 29.5744 416.238 28.0908C416.238 28.0908 416.779 29.823 417.516 32.7086Z" fill="black" fill-opacity="0.14"/>
<path opacity="0.1" d="M168.929 113.54C175.132 114.406 182.267 116.576 187.709 121.609C187.354 120.24 187.045 119.013 186.798 117.981C180.464 91.4955 146.681 96.3111 146.681 96.3111C161.948 98.5431 165.891 105.99 168.929 113.54Z" fill="black" fill-opacity="0.14"/>
<path d="M343.857 787.562C348.875 808.715 366.063 821.816 366.063 821.816C366.063 821.816 375.115 800.62 370.097 779.467C365.079 758.313 347.891 745.212 347.891 745.212C347.891 745.212 338.839 766.408 343.857 787.562Z" fill="#3F3D56" fill-opacity="0.03"/>
<path d="M351.23 783.016C365 798.301 366.682 821.799 366.682 821.799C366.682 821.799 346.039 820.514 332.269 805.228C318.5 789.942 316.818 766.444 316.818 766.444C316.818 766.444 337.461 767.73 351.23 783.016Z" fill="#42A867" fill-opacity="0.07"/>
<path d="M305.592 209.476C304.395 231.347 289.859 248.112 289.859 248.112C289.859 248.112 277.264 229.416 278.461 207.545C279.658 185.673 294.194 168.908 294.194 168.908C294.194 168.908 306.789 187.604 305.592 209.476Z" fill="#42A867" fill-opacity="0.07"/>
<path d="M154.07 71.2086C170.326 82.8956 176.255 105.481 176.255 105.481C176.255 105.481 155.828 109.118 139.573 97.4311C123.317 85.744 117.388 63.1585 117.388 63.1585C117.388 63.1585 137.814 59.5215 154.07 71.2086Z" fill="#42A867" fill-opacity="0.07"/>
<path d="M117.769 337.852C134.024 349.539 139.953 372.125 139.953 372.125C139.953 372.125 119.527 375.762 103.271 364.075C87.0158 352.388 81.0867 329.802 81.0867 329.802C81.0867 329.802 101.513 326.165 117.769 337.852Z" fill="#42A867" fill-opacity="0.07"/>
<path d="M204.251 440.127C220.507 451.814 226.436 474.399 226.436 474.399C226.436 474.399 206.009 478.036 189.754 466.349C173.498 454.662 167.569 432.076 167.569 432.076C167.569 432.076 187.996 428.439 204.251 440.127Z" fill="#42A867" fill-opacity="0.07"/>
<path d="M448.238 110.19C443.336 131.379 426.22 144.602 426.22 144.602C426.22 144.602 417.052 123.471 421.954 102.282C426.857 81.0929 443.973 67.8699 443.973 67.8699C443.973 67.8699 453.141 89.0009 448.238 110.19Z" fill="#42A867" fill-opacity="0.07"/>
<path d="M602.877 126.711C597.115 147.617 579.478 159.917 579.478 159.917C579.478 159.917 571.182 138.322 576.944 117.417C582.706 96.5109 600.343 84.2108 600.343 84.2108C600.343 84.2108 608.639 105.805 602.877 126.711Z" fill="#42A867" fill-opacity="0.07"/>
<path d="M770.017 359.382C759.58 377.782 739.707 384.28 739.707 384.28C739.707 384.28 736.755 360.945 747.193 342.545C757.63 324.145 777.503 317.647 777.503 317.647C777.503 317.647 780.454 340.982 770.017 359.382Z" fill="#42A867" fill-opacity="0.07"/>
<g clip-path="url(#clip0_3_576)">
<path d="M234.469 655.142C250.974 655.142 264.354 640.957 264.354 623.459C264.354 605.961 250.974 591.776 234.469 591.776C217.964 591.776 204.583 605.961 204.583 623.459C204.583 640.957 217.964 655.142 234.469 655.142Z" fill="#2F2E41"/>
<path d="M235.075 657.941C247.359 657.941 257.318 647.383 257.318 634.36C257.318 621.337 247.359 610.779 235.075 610.779C222.791 610.779 212.832 621.337 212.832 634.36C212.832 647.383 222.791 657.941 235.075 657.941Z" fill="#A0616A"/>
<path d="M268.882 668.583C268.882 668.583 228.13 660.902 201.867 670.503L209.564 735.309L207.753 745.87L262.09 743.95L258.468 733.389L268.882 668.583Z" fill="#A0616A"/>
<path d="M240.562 738.515C231.18 738.396 221.81 737.767 212.489 736.629C210.575 736.406 208.809 735.429 207.541 733.892C206.273 732.355 205.595 730.37 205.641 728.329L206.302 698.021L206.379 697.903C214.253 685.812 210.418 676.981 207.468 672.227C206.845 671.223 206.513 670.047 206.515 668.846C206.062 668.178 205.96 669.234 206.241 668.481C206.381 668.108 206.606 667.777 206.896 667.519C207.186 667.262 207.533 667.085 207.904 667.005L212.4 666.052C212.939 665.938 213.5 666.036 213.976 666.328C214.452 666.619 214.812 667.085 214.988 667.638C216.499 672.416 222.386 687.791 235.877 687.788C247.147 687.785 251.353 670.879 251.605 666.972C251.646 666.367 251.902 665.801 252.321 665.387C252.739 664.974 253.29 664.744 253.862 664.743H259.478C259.833 664.734 260.186 664.81 260.51 664.965C260.834 665.12 261.121 665.351 261.349 665.64C261.629 666.007 261.799 666.454 261.838 666.925C261.878 667.395 261.784 667.867 261.57 668.281C255.161 680.772 264.527 700.536 264.622 700.734L264.682 700.858L262.04 729.942C261.88 731.648 261.22 733.259 260.152 734.546C259.084 735.834 257.662 736.734 256.086 737.12C252 738.139 246.478 738.515 240.562 738.515Z" fill="#42A867"/>
<path d="M188.848 806C182.763 806.001 177.191 805.289 172.765 803.61C167.504 801.614 164.2 798.386 162.945 794.014C162.352 792.154 162.175 790.174 162.427 788.229C162.68 786.284 163.355 784.428 164.4 782.807C172.183 770.451 199.194 766.968 202.818 766.554L204.738 749.592C204.966 747.635 205.852 745.83 207.234 744.509C208.616 743.189 210.401 742.442 212.261 742.405L257.752 741.652C259.579 741.606 261.36 742.257 262.772 743.487C264.184 744.716 265.133 746.442 265.446 748.351L268.031 763.424L238.202 778.757L242.712 792.145L242.418 792.354C233.687 798.525 208.58 805.999 188.848 806Z" fill="#2F2E41"/>
<path d="M263.901 761.231C263.901 761.231 305.56 755.471 302.843 778.513C300.126 801.555 268.429 817.876 220.432 778.513L225.865 766.992C225.865 766.992 253.034 774.673 263.901 768.912V761.231Z" fill="#2F2E41"/>
<path d="M226.771 769.872C226.771 769.872 226.771 758.351 217.715 759.311C208.659 760.271 192.357 761.231 192.357 761.231C192.357 761.231 186.924 765.072 194.169 766.992C201.414 768.912 223.148 778.513 223.148 778.513L226.771 769.872Z" fill="#A0616A"/>
<path d="M242.167 767.952C242.167 767.952 242.167 756.431 251.223 757.391C260.279 758.351 276.58 759.311 276.58 759.311C276.58 759.311 282.014 763.151 274.769 765.072C267.524 766.992 245.789 776.593 245.789 776.593L242.167 767.952Z" fill="#A0616A"/>
<path d="M296.432 765.77L282.919 716.107C282.919 716.107 280.202 698.826 277.485 682.504C274.769 666.183 264.807 668.103 264.807 668.103L262.996 669.063V694.985L264.807 718.988L282.888 771.7C282.355 773.528 282.324 775.479 282.799 777.325C283.273 779.171 284.233 780.836 285.567 782.125C286.9 783.414 288.552 784.274 290.33 784.605C292.107 784.936 293.937 784.724 295.605 783.994C297.273 783.263 298.71 782.045 299.75 780.481C300.789 778.916 301.387 777.071 301.473 775.16C301.56 773.249 301.132 771.351 300.24 769.688C299.347 768.026 298.026 766.666 296.432 765.77Z" fill="#A0616A"/>
<path d="M205.036 670.023C205.036 670.023 195.074 668.103 192.358 684.424C189.641 700.746 186.924 718.027 186.924 718.027L173.411 767.69C171.818 768.587 170.5 769.946 169.609 771.608C168.717 773.27 168.291 775.166 168.378 777.075C168.465 778.985 169.063 780.829 170.102 782.391C171.14 783.954 172.577 785.171 174.243 785.901C175.91 786.631 177.738 786.843 179.514 786.513C181.29 786.182 182.941 785.323 184.274 784.036C185.607 782.748 186.566 781.085 187.041 779.241C187.516 777.397 187.486 775.447 186.955 773.621L205.036 720.908L206.847 696.906V673.13C206.847 672.485 206.678 671.853 206.358 671.304C206.038 670.755 205.58 670.312 205.036 670.023Z" fill="#A0616A"/>
<path d="M213.057 619.874C221.743 625.495 231.536 628.916 241.674 629.87L238.657 626.039C240.854 626.899 243.165 627.386 245.505 627.48C246.676 627.516 247.839 627.26 248.901 626.734C249.962 626.207 250.893 625.424 251.617 624.447C252.209 623.433 252.56 622.282 252.642 621.092C252.723 619.903 252.532 618.71 252.084 617.616C251.165 615.434 249.734 613.537 247.928 612.107C244.726 609.422 240.948 607.618 236.93 606.857C232.911 606.096 228.778 606.4 224.897 607.743C222.236 608.586 219.852 610.207 218.019 612.421C217.118 613.536 216.492 614.87 216.198 616.305C215.903 617.739 215.949 619.229 216.332 620.64" fill="#2F2E41"/>
<path d="M237.282 595.293C230.266 587.751 221.777 581.931 212.411 578.243C206.399 575.882 199.855 574.423 193.569 575.764C187.284 577.105 181.34 581.714 179.586 588.252C178.152 593.598 179.633 599.354 181.858 604.387C184.083 609.419 187.054 614.086 188.854 619.307C190.69 624.633 191.242 630.362 190.46 635.972C189.678 641.582 187.587 646.896 184.377 651.432C181.166 655.968 176.938 659.583 172.075 661.947C167.213 664.311 161.871 665.35 156.533 664.97C162.709 665.848 168.401 668.925 174.438 670.563C180.474 672.2 187.599 672.089 192.085 667.505C196.831 662.654 196.926 654.767 196.697 647.782C196.356 637.399 196.015 627.016 195.673 616.632C195.5 611.337 195.351 605.872 197.152 600.929C198.954 595.987 203.235 591.659 208.232 591.704C212.02 591.738 215.372 594.171 218.41 596.57C221.448 598.969 224.663 601.528 228.436 601.885C232.209 602.242 236.517 599.282 236.234 595.277" fill="#2F2E41"/>
<path d="M235.5 727C228.613 727.003 221.998 729.634 217.054 734.338C212.11 739.042 209.226 745.448 209.011 752.201C209.004 752.465 209 752.733 209 753C209 758.142 210.554 763.169 213.466 767.445C216.378 771.72 220.517 775.053 225.359 777.021C230.201 778.989 235.529 779.504 240.67 778.5C245.81 777.497 250.532 775.021 254.238 771.385C257.944 767.749 260.468 763.116 261.491 758.072C262.513 753.029 261.989 747.801 259.983 743.05C257.977 738.299 254.581 734.239 250.223 731.382C245.865 728.525 240.741 727 235.5 727ZM235.5 778.257C228.675 778.25 222.131 775.587 217.305 770.852C212.479 766.117 209.764 759.696 209.757 753C209.757 752.655 209.765 752.313 209.78 751.975C209.985 747.027 211.668 742.248 214.619 738.231C217.57 734.215 221.66 731.138 226.379 729.383C231.098 727.629 236.239 727.274 241.162 728.363C246.086 729.452 250.574 731.937 254.069 735.508C257.565 739.08 259.913 743.581 260.822 748.452C261.731 753.322 261.161 758.348 259.182 762.903C257.203 767.458 253.903 771.342 249.693 774.072C245.482 776.802 240.547 778.257 235.5 778.257Z" fill="#42A867"/>
<path d="M257.836 753C257.836 758.812 255.483 764.386 251.294 768.496C247.105 772.605 241.424 774.914 235.5 774.914C229.576 774.914 223.895 772.605 219.706 768.496C215.518 764.386 213.164 758.812 213.164 753C213.164 752.305 213.198 751.622 213.263 750.946C213.801 745.337 216.52 740.146 220.856 736.453C225.192 732.759 230.812 730.846 236.548 731.11C242.284 731.374 247.696 733.796 251.66 737.872C255.624 741.948 257.836 747.366 257.836 753Z" fill="white"/>
<path d="M242.151 754.456C241.61 753.758 240.898 753.204 240.081 752.848C239.073 752.431 238.032 752.096 236.969 751.845V745.88C238.603 746.122 240.136 746.807 241.394 747.859L242.629 745.278C241.919 744.658 241.104 744.164 240.221 743.818C239.242 743.429 238.214 743.171 237.166 743.049V740.026H234.308V743.079C233.204 743.201 232.139 743.552 231.184 744.108C230.322 744.609 229.596 745.307 229.068 746.143C228.565 746.959 228.304 747.897 228.315 748.851C228.266 749.885 228.571 750.905 229.182 751.748C229.744 752.479 230.487 753.056 231.339 753.427C232.363 753.856 233.422 754.2 234.504 754.456V760.172C232.576 760.03 230.738 759.31 229.238 758.111L228.004 760.696C228.843 761.376 229.796 761.906 230.821 762.263C231.944 762.658 233.117 762.898 234.308 762.977V765.974H237.166V762.921C238.753 762.751 240.242 762.081 241.41 761.012C241.924 760.528 242.33 759.945 242.602 759.299C242.875 758.653 243.007 757.959 242.992 757.26C243.039 756.26 242.744 755.272 242.151 754.456ZM234.504 751.213C233.808 751.006 233.161 750.665 232.6 750.211C232.378 750.017 232.202 749.777 232.086 749.508C231.969 749.24 231.915 748.95 231.926 748.658C231.906 747.996 232.153 747.354 232.615 746.871C233.127 746.365 233.788 746.029 234.504 745.909V751.213ZM238.763 759.117C238.28 759.603 237.652 759.925 236.969 760.035V755.117C237.621 755.289 238.232 755.588 238.763 755.997C238.965 756.166 239.125 756.378 239.232 756.615C239.339 756.853 239.389 757.112 239.38 757.372C239.407 758.009 239.186 758.633 238.763 759.117Z" fill="#42A867"/>
</g>
<defs>
<clipPath id="clip0_3_576">
<rect width="773" height="620" fill="white" transform="translate(-392 186)"/>
</clipPath>
</defs>
</svg>
