<svg width="48" height="46" viewBox="0 0 48 46" fill="none" xmlns="http://www.w3.org/2000/svg">
<path d="M24 0C17.7631 0.00231137 11.7718 2.33029 7.2943 6.4912C2.81681 10.6521 0.204475 16.3194 0.0102121 22.2936C0.00335491 22.5268 0 22.7634 0 23C0 27.549 1.40756 31.9958 4.04472 35.7781C6.68187 39.5604 10.4302 42.5084 14.8156 44.2492C19.201 45.99 24.0266 46.4455 28.6822 45.5581C33.3377 44.6706 37.6141 42.4801 40.9706 39.2635C44.327 36.0468 46.6128 31.9486 47.5388 27.4871C48.4649 23.0255 47.9896 18.401 46.1731 14.1983C44.3566 9.99558 41.2805 6.40347 37.3337 3.8762C33.3869 1.34893 28.7467 0 24 0ZM24 45C17.8186 44.9938 12.3709 42.6888 8 38.5C3.62912 34.3112 1.00644 28.9238 1 23C1 22.6944 0.986272 22.299 1 22C1.18566 17.6234 2.82717 13.5532 5.5 10C8.17283 6.44676 11.7259 4.05214 16 2.5C20.2741 0.947857 24.5412 0.536604 29 1.5C33.4588 2.4634 37.3344 4.84038 40.5 8C43.6656 11.1596 45.6768 14.6914 46.5 19C47.3232 23.3086 46.792 27.4705 45 31.5C43.208 35.5296 40.3133 39.0851 36.5 41.5C32.6867 43.9149 28.5707 45.0001 24 45Z" fill="#42A867"/>
<path d="M44.2286 23C44.2286 28.1414 42.0974 33.0722 38.3038 36.7077C34.5102 40.3433 29.365 42.3857 24 42.3857C18.6351 42.3857 13.4899 40.3433 9.69627 36.7077C5.90267 33.0722 3.77145 28.1414 3.77145 23C3.77145 22.3856 3.80226 21.781 3.86052 21.183C4.34799 16.221 6.81092 11.6295 10.7379 8.36201C14.6649 5.09447 19.7542 3.40189 24.9491 3.63571C30.144 3.86954 35.0453 6.01181 38.6354 9.6177C42.2256 13.2236 44.2286 18.016 44.2286 23Z" fill="white"/>
<path d="M30.024 24.288C29.5337 23.6702 28.8887 23.1809 28.1487 22.8653C27.2359 22.4967 26.2934 22.2 25.3303 21.9782V16.7013C26.8106 16.9152 28.199 17.5218 29.3383 18.4526L30.4561 16.169C29.8132 15.6202 29.0752 15.1832 28.2754 14.8777C27.3889 14.5337 26.4584 14.305 25.5086 14.1976V11.523H22.9201V14.2239C21.9205 14.3315 20.9563 14.6417 20.0915 15.134C19.3103 15.5771 18.6527 16.1949 18.1748 16.9346C17.7188 17.6564 17.4825 18.4861 17.4926 19.3299C17.4481 20.2442 17.7245 21.1465 18.2778 21.8927C18.787 22.5388 19.4595 23.0499 20.232 23.3779C21.1592 23.7574 22.1181 24.0618 23.0984 24.288V29.3447C21.3515 29.2184 19.687 28.582 18.3292 27.5211L17.2115 29.808C17.9707 30.4095 18.8341 30.8788 19.7624 31.1946C20.7796 31.5434 21.8422 31.7557 22.9201 31.8254V34.477H25.5086V31.7762C26.9464 31.6256 28.2947 31.0331 29.352 30.0873C29.8176 29.6594 30.1855 29.1434 30.4322 28.5722C30.6789 28.0009 30.7991 27.3868 30.7852 26.7687C30.8282 25.8835 30.5602 25.01 30.024 24.288ZM23.0984 21.4196C22.4678 21.2363 21.8816 20.9348 21.3737 20.5324C21.1725 20.3609 21.0135 20.1487 20.908 19.9113C20.8025 19.6738 20.7531 19.4169 20.7635 19.159C20.7448 18.5738 20.9692 18.0054 21.3874 17.5786C21.8511 17.1308 22.4494 16.8332 23.0984 16.7276V21.4196ZM26.9555 28.4116C26.5181 28.8415 25.9486 29.1259 25.3303 29.2231V24.8729C25.9213 25.0248 26.4741 25.2897 26.9555 25.6516C27.138 25.801 27.283 25.9878 27.3798 26.1983C27.4765 26.4088 27.5225 26.6374 27.5143 26.8673C27.5381 27.4312 27.3385 27.9829 26.9555 28.4116Z" fill="#42A867"/>
</svg>
